<svg xmlns="http://www.w3.org/2000/svg" version="1.1" xmlns:xlink="http://www.w3.org/1999/xlink" xmlns:svgjs="http://svgjs.dev/svgjs" width="100%" height="100%" viewBox="0 0 1000 600"><rect width="1000" height="600" x="0" y="0" fill="#fde74c"/><g><circle r="166.66666666666666" cx="355.32172648111975" cy="377.5439443489921" fill="#7b4b94" transform="matrix(0.6625849678407958,0,0,0.6625849678407959,0,49.84506247896475)"/><path d="M256.99323416597923 427.96951337365647L256.99323416597923 427.96951337365647Q252.44241684477237 427.96951337365647 248.4225282110396 427.33745541237784Q244.427921895758 426.68011513264787 241.31819672626662 425.2390229809324L241.31819672626662 425.2390229809324Q236.76737940505973 423.03946127568236 233.32898409570345 419.0448549604008Q229.86530646789595 415.05024864511915 227.86800331025518 410.2971727763031L227.86800331025518 410.2971727763031Q226.22465261093043 406.1255902318635 226.22465261093043 402.66191260405606L226.22465261093043 402.66191260405606Q226.22465261093043 396.46774458352445 229.76417719409136 392.0180565361221Q233.32898409570345 387.5430861702687 238.51185937818906 384.35751404542384Q243.69473466067467 381.171941920579 248.4225282110396 379.3516149920963L248.4225282110396 379.3516149920963Q250.41983136868038 378.44145152785495 250.34398441332695 379.17463876293823Q250.24285513952236 379.9078259980216 249.33269167528096 380.26177845633765L249.33269167528096 380.26177845633765Q244.7818743540741 382.28436393242964 240.40803326202524 386.8351812536365Q236.05947448842755 391.38599857484337 233.32898409570345 397.02395558944966Q230.59849370297928 402.66191260405606 230.59849370297928 408.12289338950427L230.59849370297928 408.12289338950427Q230.59849370297928 414.49403763919395 235.60439275630688 419.0448549604008Q240.61029180963445 423.5956722816077 252.79636930308845 423.5956722816077L252.79636930308845 423.5956722816077Q258.813561094462 423.5956722816077 265.63978707627234 422.0534508560876Q272.4660130580827 420.5112294305675 279.08998049228376 418.235820769964Q285.73923024493604 415.9604121093606 291.20021103038437 413.76085040411056L291.20021103038437 413.76085040411056Q293.75372519395046 412.67371071071113 298.58264801812 410.2213258209497Q303.4115708422895 407.76894093118824 308.9483985830912 404.3811102587342Q314.51050864234406 401.0185619047313 319.6933839248297 397.2009318186077Q324.87625920731534 393.38330173248414 328.1629606059647 389.56567164636067Q331.424379686163 385.72275924178587 331.424379686163 382.4613401615877L331.424379686163 382.4613401615877Q331.424379686163 379.3516149920963 327.70787887384404 377.63241733741813Q323.96609574307394 375.91321968273996 318.42926800227224 375.1800324476567Q312.8671579430194 374.4468452125733 307.40617715757105 374.4468452125733L307.40617715757105 374.4468452125733Q299.39168220855674 374.4468452125733 295.75102835159123 375.35700867681464L295.75102835159123 375.35700867681464Q292.84356172970905 376.09019591189804 289.37988410190155 378.5425808016595Q285.9162064740941 380.99496569142104 283.00873985221193 380.99496569142104L283.00873985221193 380.99496569142104Q281.1884129237292 380.99496569142104 280.00014395652516 379.73084976886355Q278.8371573077723 378.44145152785495 278.8371573077723 376.8233831469813L278.8371573077723 376.8233831469813Q278.8371573077723 375.35700867681464 280.00014395652516 373.9917634804526Q281.1884129237292 372.6265182840906 284.09587954561135 372.0703072781653L284.09587954561135 372.0703072781653Q285.9162064740941 371.71635481984913 288.0146389055395 371.6152255460446Q290.11307133698494 371.5393785906912 292.2873507237838 371.3624023615331L292.2873507237838 371.3624023615331Q294.48691242903374 371.1601438139239 296.58534486047915 370.9073206294124Q298.6584949734734 370.6292151264497 300.47882190195617 369.89602789136643L300.47882190195617 369.89602789136643Q307.5831533867291 367.34251372780034 314.86446110066015 363.80298914463947Q322.1457688145912 360.2381822430274 328.5169130642808 355.23228318969984Q334.8880573139704 350.2263841363722 339.08492217686126 343.5012874283665L339.08492217686126 343.5012874283665Q341.2592015636601 339.6836573422429 341.2592015636601 336.0430034852774L341.2592015636601 336.0430034852774Q341.2592015636601 331.4921861640705 337.4415714775365 328.6605664975418Q333.623941391413 325.85422914946423 327.60674960003945 324.2867254054929Q321.6148401271171 322.7445039799728 314.86446110066015 322.2135752924987L314.86446110066015 322.2135752924987Q311.22380724369464 325.12104191438084 310.1366675502952 326.5621340660964L310.1366675502952 326.5621340660964Q305.76282645824637 331.31520993491245 299.39168220855674 338.49538837503894Q293.02053795886707 345.6755668151653 286.1184650217033 354.3221197254584Q279.1911097660884 362.96867263575155 273.17391797471487 371.99446032281185Q267.18200850179244 380.99496569142104 263.36437841566885 389.74264787551874Q259.52146601109416 398.4650477411652 259.52146601109416 405.74635545509625L259.52146601109416 405.74635545509625Q259.52146601109416 409.0330568537456 260.63388802294475 411.94052347562786Q261.72102771634417 414.84799009751 265.71563403162577 415.2272248742772L265.71563403162577 415.2272248742772Q266.4488212667091 415.2272248742772 266.17071576374644 415.6823066063979Q265.89261026078384 416.1373883385186 264.98244679654243 416.1373883385186L264.98244679654243 416.1373883385186Q260.98784048126083 416.1373883385186 257.90339763022064 412.1174997047859Q254.79367246072923 408.12289338950427 254.79367246072923 401.92872536897266L254.79367246072923 401.92872536897266Q254.79367246072923 395.93681589605023 257.97924458557407 387.9223209470359Q261.1648167104189 379.9078259980216 266.4488212667091 370.98316758476585Q271.7328258229993 362.0585091715101 278.1798170280424 353.058003802901Q284.6520905515367 344.0574984342918 291.3771872595424 335.8660272561193Q298.12756628599925 327.674556077947 303.9424995297636 321.4803880574154L303.9424995297636 321.4803880574154Q299.2147059793987 321.30341182825737 292.66658550055104 321.5562350127688Q286.1184650217033 321.83434051573147 279.46921526905106 322.2135752924987Q272.8199655163987 322.5675277508148 267.6370902339131 323.0226094829355Q262.4542149514275 323.4776912150562 260.43162947533557 323.83164367337224L260.43162947533557 323.83164367337224Q238.96694111030973 327.851532307105 227.21066303052527 333.38836004790676Q215.47966726919196 338.9504701071596 215.47966726919196 344.765403350924L215.47966726919196 344.765403350924Q215.47966726919196 345.8778253627745 215.65664349835 346.4087540502486L215.65664349835 346.4087540502486Q216.03587827511726 347.31891751449007 217.0218886947121 348.507186481694Q218.03318143275806 349.6954554488981 218.7663686678414 350.2263841363722L218.7663686678414 350.2263841363722Q218.94334489699943 350.42864268398137 218.94334489699943 350.7825951422975L218.94334489699943 350.7825951422975Q218.94334489699943 351.13654760061354 218.5641101202322 351.5157823773808Q218.2101576619161 351.86973483569693 217.6539466559908 351.69275860653886L217.6539466559908 351.69275860653886Q213.30538788239312 349.31622067213084 210.82772067418048 345.1446381276912Q208.375335784419 340.9477732648004 208.375335784419 338.77349387800155L208.375335784419 338.77349387800155Q208.375335784419 334.2226765567947 215.47966726919196 330.4050464706711Q222.58399875396495 326.5621340660964 233.85991278317755 323.6546674442142Q245.16110913084134 320.74720082233205 257.70113908261146 319.2808263521654L257.70113908261146 319.2808263521654Q264.4515181090683 318.370662887924 273.0980710193614 317.83973420044987Q281.7446239296545 317.2835231945246 291.0232348012263 317.2835231945246L291.0232348012263 317.2835231945246Q298.86075352108264 317.2835231945246 306.1420612350136 317.83973420044987L306.1420612350136 317.83973420044987L307.5831533867291 316.3733597302832Q306.3190374641717 315.10924380772576 306.3190374641717 314.02210411432634L306.3190374641717 314.02210411432634Q306.3190374641717 312.9096821024757 307.22920092841304 311.9236716828809Q308.13936439265444 310.9123789448349 309.4034803152119 309.64826302227743L309.4034803152119 309.64826302227743Q311.4007834728527 307.82793609379473 314.33353241318605 306.0076091653119Q317.24099903506817 304.1872822368292 318.68209118678374 302.5439315375045L318.68209118678374 302.5439315375045Q321.2356053503498 302.72090776666255 324.2442012460366 303.90917673386656Q327.25279714172336 305.09744570107057 327.25279714172336 308.0049123229528L327.25279714172336 308.0049123229528Q327.25279714172336 308.35886478126884 327.1516678679187 308.8139465133895Q327.0758209125653 309.2690282455102 326.8735623649561 309.8252392514355L326.8735623649561 309.8252392514355Q326.51960990664 311.089355173993 324.2442012460366 313.465893108401Q321.9687925854331 315.84243104280904 318.3281387284676 319.1038501230073L318.3281387284676 319.1038501230073Q323.4351670555998 320.1909898164067 328.97199479640153 321.83434051573147Q334.5341048556544 323.4776912150562 338.705687400094 326.663263339901Q342.90255226298484 329.8488354647458 343.6357394980681 335.66376870851013L343.6357394980681 335.66376870851013Q346.54320611995036 339.6836573422429 346.54320611995036 343.5012874283665L346.54320611995036 343.5012874283665Q346.54320611995036 348.9622682138147 341.99238879874343 353.69006176417963Q337.4415714775365 358.41785531454457 330.79232172488423 361.98266221615665Q324.14307197223195 365.52218679931764 317.51910453803083 367.7217485045676Q310.86985478537855 369.89602789136643 306.6729899224878 370.2499803496826L306.6729899224878 370.2499803496826Q305.93980268740444 370.45223889729175 306.040931961209 370.8061913556078Q306.1420612350136 371.1601438139239 307.22920092841304 371.1601438139239L307.22920092841304 371.1601438139239Q311.956994478778 371.1601438139239 317.9741862701515 372.1714365519699Q323.96609574307394 373.1827292900158 328.6180423380854 375.1800324476567Q333.24470661464574 377.17733560529746 333.44696516225497 380.26177845633765L333.44696516225497 380.26177845633765L333.44696516225497 380.4640370039468Q333.44696516225497 381.3742004681883 334.15487007888714 382.183234658625Q334.8880573139704 382.9922688490618 335.44426831989574 383.7254560841452L335.44426831989574 383.7254560841452Q337.79552393585266 386.1019940185532 337.79552393585266 388.2762734053521L337.79552393585266 388.2762734053521Q337.79552393585266 389.9196241046767 336.8853604716113 391.38599857484337L336.8853604716113 391.38599857484337Q331.8036144629302 399.7544459821738 320.95749984738717 407.6678116573836Q310.1366675502952 415.58117733259337 296.6611918158326 420.5112294305675L296.6611918158326 420.5112294305675Q292.1103744946257 422.129297811441 285.38527778661995 423.8737777845704Q278.6348987601631 425.59297543924845 271.2777440908786 426.7812444064525Q263.895307103143 427.96951337365647 256.99323416597923 427.96951337365647ZM346.1892536616342 452.5439269081737L346.1892536616342 452.5439269081737Q340.52601432857676 452.5439269081737 335.0650335431285 451.0017054826536Q329.6040527576802 449.4342017386824 326.0645281745193 445.61657165255883Q322.5250035913584 441.79894156643525 322.5250035913584 435.2508210875876L322.5250035913584 435.2508210875876Q322.5250035913584 433.9614228465789 323.61214328475785 433.9614228465789L323.61214328475785 433.9614228465789Q324.69928297815727 433.9614228465789 324.69928297815727 435.42779731674557L324.69928297815727 435.42779731674557Q324.69928297815727 439.8016384087945 327.4297733708814 442.2540232985559Q330.1602637636055 444.7064081883175 333.97789384972907 445.71770092636336Q337.79552393585266 446.70371134595825 340.905249105344 446.70371134595825L340.905249105344 446.70371134595825Q342.90255226298484 446.70371134595825 344.8240084652722 446.6278643906048Q346.72018234910837 446.5267351168002 348.5405092775911 446.3497588876421L348.5405092775911 446.3497588876421Q359.1085183901715 444.88338441747544 368.1090237587807 439.8774853641479Q377.1348114458411 434.87158631082036 384.8712008918928 427.59027859688933Q392.60759033794443 420.3089708829583 399.5096632751082 412.21862897859046Q406.4370185307232 404.1282870742227 412.80816278041283 396.6447208126825L412.80816278041283 396.6447208126825Q415.3616769439789 393.5602779616422 419.0781777562979 389.1864368695934Q422.81996088706796 384.8125957775445 426.5364616993869 380.4640370039468Q430.27824483015706 376.09019591189804 432.83175899372316 373.1827292900158L432.83175899372316 373.1827292900158Q418.8000722533352 376.62112459937214 403.70652813799904 381.7281529265043Q388.5877017042117 386.8351812536365 373.84811004719165 389.3634130987515L373.84811004719165 389.3634130987515Q371.29459588362556 389.74264787551874 368.66523476470604 390.475835110602Q366.0105913273353 391.1837400272342 363.48235948222043 391.1837400272342L363.48235948222043 391.1837400272342Q360.372634312729 391.1837400272342 357.4651676908469 389.3634130987515L357.4651676908469 389.3634130987515Q355.290888304048 387.9223209470359 353.47056137556524 385.09070128050723Q351.65023444708254 382.28436393242964 351.65023444708254 379.3516149920963L351.65023444708254 379.3516149920963Q351.65023444708254 377.0003593761394 354.9116535272808 374.54797448637794Q358.1983549259302 372.0703072781653 363.2042539792577 369.6179223884038Q368.21015303258537 367.16553749864227 373.746980773387 365.2440812963549Q379.3090908326399 363.3479074125188 384.0368843830048 362.1596384453147Q388.76467793336974 360.97136947811066 391.1412158677778 360.97136947811066L391.1412158677778 360.97136947811066Q393.3154952545766 360.97136947811066 393.3154952545766 361.70455671319405L393.3154952545766 361.70455671319405Q393.3154952545766 362.6147201774354 390.78726340946173 362.96867263575155L390.78726340946173 362.96867263575155Q388.05677301673757 363.52488364167675 383.6829319246888 364.78899956423425Q379.3090908326399 366.07839780524284 374.6571442376285 367.797595459921Q370.03047996106807 369.5420754330503 366.2128498749445 371.3624023615331L366.2128498749445 371.3624023615331Q361.45977400612844 373.53668174833194 359.184365345525 375.81209040893543Q356.9089566849216 378.0874990695388 356.9089566849216 380.0848022271796L356.9089566849216 380.0848022271796Q356.9089566849216 383.7254560841452 363.6593357113785 383.7254560841452L363.6593357113785 383.7254560841452Q364.56949917561985 383.7254560841452 365.4796626398612 383.64960912879167Q366.38982610410255 383.548479854987 367.476965797502 383.37150362582906L367.476965797502 383.37150362582906Q379.1321146034818 381.55117669734625 390.86311036481516 378.5425808016595Q402.6193884445996 375.5339849059727 414.07227870297027 372.4495420549325Q425.55045127979207 369.3398168854411 436.6493890798466 367.7217485045676L436.6493890798466 367.7217485045676L444.66388402886105 358.9740663204699Q453.7655186712748 348.9622682138147 461.8558605756425 339.2285756101222Q469.9714847984616 329.49488300642975 479.2500956700334 319.6600611289326L479.2500956700334 319.6600611289326Q482.1575622919155 316.75259450705045 484.1548654495564 313.8198455667171Q486.15216860719715 310.9123789448349 488.8826589999213 308.0049123229528L488.8826589999213 308.0049123229528Q491.61314939264537 309.2690282455102 494.34363978536953 309.5471337484729Q497.0741301780937 309.8252392514355 499.27369188334364 310.73540271567686Q501.4479712701425 311.64556617991826 502.1811585052259 315.10924380772576L502.1811585052259 315.10924380772576Q502.5351109635419 317.10654696536653 501.4479712701425 320.1151428610533Q500.36083157674307 323.12373875674007 499.27369188334364 324.56483090845563L499.27369188334364 324.56483090845563Q495.8100142555362 329.8488354647458 491.8912548956081 336.3211089882401Q487.97249553567997 342.7681001932832 484.1548654495564 349.13924444297277Q480.3372353634328 355.51038869266245 477.32863946774603 360.61741701979463Q474.32004357205926 365.6991630284756 472.8789514203437 368.2526771920417L472.8789514203437 368.2526771920417Q474.8762545779846 368.9858644271251 477.2527925123926 370.45223889729175Q479.6040481283495 371.8933310490072 481.3485281014788 373.81478725129455Q483.06772575615696 375.7109611351308 482.7137732978408 378.0874990695388L482.7137732978408 378.0874990695388Q485.06502891379773 380.26177845633765 485.06502891379773 383.194527396671L485.06502891379773 383.194527396671Q485.06502891379773 385.19183055431176 482.51151475023164 387.088004438148Q479.98328290511665 389.00946064043535 476.5196052773092 391.0067637980761Q473.05592764950177 393.004066955717 469.9714847984616 395.0266524318089L469.9714847984616 395.0266524318089Q469.7692262508524 395.20362866096696 469.5164030663409 394.7485469288463Q469.2382975633782 394.2934651967256 469.41527379253625 394.11648896756753L469.41527379253625 394.11648896756753Q471.96878795610235 392.09390349147554 475.5083125392632 388.8324844112773Q479.0731194408753 385.5457830126279 479.0731194408753 379.5538735397055L479.0731194408753 379.5538735397055Q479.0731194408753 376.8233831469813 476.59545223266275 374.54797448637794Q474.1430673429012 372.27256582577445 471.412576950177 371.1601438139239L471.412576950177 371.1601438139239Q466.1285723938869 380.6410132331049 462.0328368048007 391.7399510331595Q457.9371012157144 402.838888833214 455.9397980580737 411.7635472464698L455.9397980580737 411.7635472464698Q455.7628218289156 413.22992171663645 455.48471632595295 414.671013868352Q455.20661082299034 416.1373883385186 455.20661082299034 417.57848049023414L455.20661082299034 417.57848049023414Q455.20661082299034 419.39880741871696 455.8639511027202 421.49723985016226Q456.49600906399894 423.5956722816077 458.84726467995586 423.5956722816077L458.84726467995586 423.5956722816077Q462.48791853692126 423.5956722816077 466.1285723938869 420.0561476984468Q469.7692262508524 416.4913407968347 471.5895531793351 413.76085040411056L471.5895531793351 413.76085040411056Q472.3227404144184 412.8506869398692 473.05592764950177 412.4967344815532Q473.78911488458505 412.1174997047859 473.23290387865984 413.4068979457945L473.23290387865984 413.4068979457945Q472.8789514203437 414.3170614100359 472.3227404144184 415.2272248742772Q471.7918117269443 416.1373883385186 471.23560072101907 417.04755180276004L471.23560072101907 417.04755180276004Q470.14846102761965 418.4886439544755 468.682086557453 421.21913434719966Q467.2409944057374 423.9496247399238 465.4206674772547 426.14918644517377Q463.6003405487719 428.3234658319726 461.2238026143639 428.3234658319726L461.2238026143639 428.3234658319726Q459.7574281441972 428.3234658319726 457.02693775147304 426.7812444064525Q454.29644735874894 425.2390229809324 452.67837897787535 423.9496247399238L452.67837897787535 423.9496247399238Q451.03502827855067 422.50853258820825 450.02373554050473 420.0561476984468Q449.03772512090984 417.57848049023414 448.6584903441426 415.75815356175144L448.6584903441426 415.75815356175144Q448.6584903441426 415.2272248742772 448.58264338878917 414.671013868352Q448.48151411498463 414.1400851808778 448.48151411498463 413.4068979457945L448.48151411498463 413.4068979457945Q448.48151411498463 408.12289338950427 450.6557935017834 400.9427149493779Q452.8553552070334 393.7372541908003 456.1167742872317 385.64691228643244Q459.40347568588106 377.5312880636135 462.69017708453055 369.71905166220836L462.69017708453055 369.71905166220836Q461.7800136202892 369.71905166220836 460.86985015604773 369.6179223884038Q459.9596866918064 369.5420754330503 459.04952322756503 369.5420754330503L459.04952322756503 369.5420754330503Q453.7655186712748 369.5420754330503 448.58264338878917 370.3511096234871Q443.37448578785245 371.1601438139239 438.1157635500133 372.27256582577445L438.1157635500133 372.27256582577445Q431.7446193003237 380.0848022271796 423.7301243513093 390.55168206595545Q415.715629402295 401.0185619047313 406.51286548607663 411.86467652027443Q397.3353838883094 422.6855088173663 387.22245650784964 431.8882727335847Q377.1348114458411 441.06575433135197 366.7437785624187 446.8048406197628Q356.3780279974475 452.5439269081737 346.1892536616342 452.5439269081737ZM442.11036986529496 366.9885612694843L442.11036986529496 366.9885612694843Q446.3072347281858 366.432350263559 450.12486481430926 366.2553740344009Q453.94249490043285 366.07839780524284 457.9371012157144 366.07839780524284L457.9371012157144 366.07839780524284L463.95429300708804 366.07839780524284Q465.21840892964553 363.3479074125188 468.60623960209944 357.33071562114515Q471.96878795610235 351.33880614822283 476.14037050054196 344.23447466344976Q480.3372353634328 337.1301431786768 484.1548654495564 330.93597515814525Q487.97249553567997 324.74180713761365 490.1720572409299 321.6573642865734L490.1720572409299 321.6573642865734Q491.4361731634874 319.6600611289326 491.4361731634874 318.7498976646913L491.4361731634874 318.7498976646913Q491.4361731634874 317.4604994236827 489.337740732042 318.47179216172856Q487.2645906190478 319.48308489977455 484.7110764554816 321.6573642865734L484.7110764554816 321.6573642865734Q480.8934463693581 324.9440656852228 475.05323080714254 331.03710443194984Q469.2382975633782 337.1301431786768 462.766024039884 344.1333453896452Q456.31903283484087 351.13654760061354 450.756922775588 357.33071562114515Q445.19481271633515 363.52488364167675 442.11036986529496 366.9885612694843Z " fill="#e5ece9" transform="matrix(0.6625849678407958,0,0,0.6625849678407959,0,49.84506247896475)"/><path d="M646.2018199163372 408.00737013094465L646.2018199163372 408.00737013094465Q642.3752891716928 408.00737013094465 638.9951870139234 407.4759075275217Q635.636343360291 406.923186419962 633.0215473514506 405.71145168415796L633.0215473514506 405.71145168415796Q629.1950166068061 403.86196182424646 626.3038600441859 400.503118170614Q623.3914449774286 397.14427451698157 621.7120231506124 393.1476757392418L621.7120231506124 393.1476757392418Q620.330220381713 389.64002255665105 620.330220381713 386.7276074898938L620.330220381713 386.7276074898938Q620.330220381713 381.51927397634984 623.3064109608811 377.7777772482531Q626.3038600441859 374.0150220160193 630.6618533922532 371.3364504947682Q635.0198467403205 368.657878973517 638.9951870139234 367.12726667565914L638.9951870139234 367.12726667565914Q640.6746088407397 366.3619605267303 640.6108333283289 366.97845714670075Q640.5257993117812 367.5949537666713 639.7604931628523 367.8925728245881L639.7604931628523 367.8925728245881Q635.9339624182078 369.5932531555412 632.2562412025218 373.41978390018573Q628.5997784909725 377.24631464483025 626.3038600441859 381.986961067362Q624.0079415973992 386.7276074898938 624.0079415973992 391.31944438346716L624.0079415973992 391.31944438346716Q624.0079415973992 396.6765874259695 628.2171254165081 400.503118170614Q632.426309235617 404.32964891525853 642.6729082296096 404.32964891525853L642.6729082296096 404.32964891525853Q647.7324322141951 404.32964891525853 653.4722283311619 403.03288016290674Q659.2120244481285 401.73611141055505 664.7817525319999 399.8228460382328Q670.3727391200084 397.90958066591054 674.9645760135818 396.06009080599904L674.9645760135818 396.06009080599904Q677.1116849314101 395.1459751281117 681.1720592215606 393.083900226831Q685.2324335117112 391.02182532555037 689.8880459176953 388.173185771204Q694.5649168278164 385.34580472099435 698.9229101758838 382.1357705963204Q703.280903523951 378.92573647164636 706.0445090617499 375.7157023469724Q708.7868560954117 372.4844097181615 708.7868560954117 369.7420626844996L708.7868560954117 369.7420626844996Q708.7868560954117 367.12726667565914 705.6618559872855 365.68168839434907Q702.5155973750221 364.2361101130389 697.859984969038 363.6196134930684Q693.183114058917 363.00311687309784 688.5912771653436 363.00311687309784L688.5912771653436 363.00311687309784Q681.852331353942 363.00311687309784 678.7911067582263 363.7684230220268L678.7911067582263 363.7684230220268Q676.3463787824812 364.38491964199727 673.433963715724 366.4469945432779Q670.5215486489667 368.5090694445586 668.0768206732216 368.5090694445586L668.0768206732216 368.5090694445586Q666.5462083753639 368.5090694445586 665.5470586809289 367.44614423771293Q664.5691674906309 366.3619605267303 664.5691674906309 365.00141626196785L664.5691674906309 365.00141626196785Q664.5691674906309 363.7684230220268 665.5470586809289 362.6204637986334Q666.5462083753639 361.4725045752401 668.990936351109 361.00481748422794L668.990936351109 361.00481748422794Q670.5215486489667 360.70719842631115 672.2860044923307 360.6221644097635Q674.0504603356944 360.55838889735276 675.878691691469 360.40957936839436L675.878691691469 360.40957936839436Q677.7281815513805 360.2395113352991 679.4926373947444 360.02692629392993Q681.2358347339714 359.7930827484239 682.7664470318291 359.17658612845344L682.7664470318291 359.17658612845344Q688.7400866943019 357.02947721062503 694.8625358857332 354.0532866314571Q700.9849850771644 351.0558375481522 706.3421281196667 346.8466537290433Q711.6992711621689 342.63746990993434 715.2281828488966 336.9827078095153L715.2281828488966 336.9827078095153Q717.0564142046713 333.77267368484127 717.0564142046713 330.71144908912567L717.0564142046713 330.71144908912567Q717.0564142046713 326.8849183444812 713.8463800799972 324.5039658811468Q710.6363459553232 322.1442719219494 705.5768219707378 320.8262446654607Q700.5385564902892 319.52947591310897 694.8625358857332 319.0830473262338L694.8625358857332 319.0830473262338Q691.8013112900176 321.52777530197886 690.8871956121302 322.73951003778296L690.8871956121302 322.73951003778296Q687.2094743964442 326.7361088155228 681.852331353942 332.7735239904063Q676.4951883114395 338.8109391652898 670.6916166820621 346.0813475801144Q664.8667865485477 353.351755994939 659.8072625639621 360.9410419718173Q654.7689970835136 368.5090694445586 651.5589629588396 375.8645118759308Q648.3276703300287 383.19869580316606 648.3276703300287 389.32114499459726L648.3276703300287 389.32114499459726Q648.3276703300287 392.08475053239613 649.2630445120528 394.5294785081412Q650.1771601899402 396.9742064838863 653.5360038435725 397.2930840459401L653.5360038435725 397.2930840459401Q654.152500463543 397.2930840459401 653.918656918037 397.6757371204045Q653.6848133725309 398.05839019486893 652.9195072236021 398.05839019486893L652.9195072236021 398.05839019486893Q649.5606635699696 398.05839019486893 646.9671260652661 394.6782880370996Q644.3523300564257 391.31944438346716 644.3523300564257 386.1111108699233L644.3523300564257 386.1111108699233Q644.3523300564257 381.07284538947476 647.0309015776769 374.333899578073Q649.7094730989281 367.5949537666713 654.152500463543 360.0907018063407Q658.5955278281581 352.58644984601005 664.0164463830711 345.0184223732688Q669.458623442121 337.4503949005274 675.1133855425402 330.56263956016727Q680.7894061470961 323.67488421980715 685.6788620985864 318.46655070626326L685.6788620985864 318.46655070626326Q681.7035218249835 318.31774117730487 676.1975692535227 318.530326218674Q670.6916166820621 318.76416976418005 665.1006300940537 319.0830473262338Q659.5096435060453 319.3806663841506 655.151650157978 319.763319458615Q650.7936568099107 320.14597253307943 649.0929764789576 320.4435915909962L649.0929764789576 320.4435915909962Q631.0445064667176 323.82369374876555 621.1593020430527 328.4793061547497Q611.2953561235247 333.1561770648708 611.2953561235247 338.04563301636097L611.2953561235247 338.04563301636097Q611.2953561235247 338.9810071983852 611.444165652483 339.4274357852604L611.444165652483 339.4274357852604Q611.7630432145368 340.19274193418926 612.5921248758764 341.19189162862426Q613.442465041353 342.19104132305915 614.0589616613235 342.63746990993434L614.0589616613235 342.63746990993434Q614.2077711902818 342.80753794302973 614.2077711902818 343.1051570009465L614.2077711902818 343.1051570009465Q614.2077711902818 343.4027760588633 613.8888936282281 343.721653620917Q613.5912745703113 344.0192726788338 613.1235874792992 343.8704631498754L613.1235874792992 343.8704631498754Q609.46712476775 341.8721637610055 607.3837913623324 338.36451057841464Q605.3217164610519 334.835598891687 605.3217164610519 333.0073675359124L605.3217164610519 333.0073675359124Q605.3217164610519 329.1808367912679 611.2953561235247 325.97080266659384Q617.2689957859975 322.73951003778296 626.750288631061 320.2947820620378Q636.2528399802616 317.85005408629274 646.7970580321709 316.61706084635176L646.7970580321709 316.61706084635176Q652.4730786367268 315.85175469742285 659.7434870515515 315.40532611054766Q667.013895466376 314.9376390195356 674.8157664846233 314.9376390195356L674.8157664846233 314.9376390195356Q681.4059027670667 314.9376390195356 687.5283519584979 315.40532611054766L687.5283519584979 315.40532611054766L688.7400866943019 314.1723328706066Q687.6771614874563 313.109407663761 687.6771614874563 312.19529198587367L687.6771614874563 312.19529198587367Q687.6771614874563 311.2599178038495 688.4424676363851 310.4308361425098Q689.207773785314 309.58049597703325 690.2706989921599 308.5175707701876L690.2706989921599 308.5175707701876Q691.950120818976 306.9869584723298 694.4161072988579 305.45634617447195Q696.860835274603 303.9257338766142 698.0725700104072 302.54393110771474L698.0725700104072 302.54393110771474Q700.2196789282355 302.6927406366732 702.7494409205282 303.6918903311081Q705.279202912821 304.6910400255431 705.279202912821 307.13576800128817L705.279202912821 307.13576800128817Q705.279202912821 307.43338705920496 705.1941688962733 307.8160401336694Q705.1303933838625 308.1986932081338 704.9603253507672 308.666380299146L704.9603253507672 308.666380299146Q704.6627062928504 309.72930550599165 702.7494409205282 311.72760489486154Q700.8361755482059 313.72590428373144 697.7749509524904 316.46825131739337L697.7749509524904 316.46825131739337Q702.0691687881471 317.3823669952807 706.7247811941312 318.76416976418005Q711.4016521042521 320.14597253307943 714.909305286843 322.8245440543306Q718.4382169735708 325.5031155755818 719.0547135935411 330.39257152707194L719.0547135935411 330.39257152707194Q721.4994415692862 333.77267368484127 721.4994415692862 336.9827078095153L721.4994415692862 336.9827078095153Q721.4994415692862 341.5745447030887 717.6729108246417 345.5498849766916Q713.8463800799972 349.5252252502945 708.2553934919889 352.5226743335993Q702.6644069039806 355.4988649127673 697.0946788201092 357.3483547726788Q691.5036922321008 359.17658612845344 687.974780545373 359.4742051863702L687.974780545373 359.4742051863702Q687.3582839254026 359.6442732194655 687.4433179419502 359.9418922773823Q687.5283519584979 360.2395113352991 688.4424676363851 360.2395113352991L688.4424676363851 360.2395113352991Q692.4178079099881 360.2395113352991 697.4773318945736 361.0898515007757Q702.5155973750221 361.9401916662522 706.4271621362144 363.6196134930684Q710.3174683932697 365.29903531988464 710.487536426365 367.8925728245881L710.487536426365 367.8925728245881L710.487536426365 368.0626408576834Q710.487536426365 368.82794700661236 711.0827745421985 369.5082191389936Q711.6992711621689 370.1884912713748 712.1669582531812 370.80498789134526L712.1669582531812 370.80498789134526Q714.1439991379142 372.80328728021516 714.1439991379142 374.6315186359898L714.1439991379142 374.6315186359898Q714.1439991379142 376.0133214048892 713.3786929889851 377.24631464483025L713.3786929889851 377.24631464483025Q709.1057336574655 384.2828795141487 699.9858353827294 390.93679130900273Q690.8871956121302 397.59070310385687 679.5564129071552 401.73611141055505L679.5564129071552 401.73611141055505Q675.7298821625106 403.0966556753175 670.0751200620916 404.56349246076456Q664.3990994575356 406.00907074207475 658.2128747536935 407.00822043650965Q652.0053915457147 408.00737013094465 646.2018199163372 408.00737013094465ZM727.7707002896758 406.6255673620452L727.7707002896758 406.6255673620452Q723.3276729250609 406.6255673620452 720.2026728169345 403.2667237084129Q717.0564142046713 399.88662155064355 717.0564142046713 394.083049921266L717.0564142046713 394.083049921266Q717.0564142046713 391.93594100343773 717.5878768080942 389.406179011145Q718.140597915654 386.8764170188522 719.2035231224996 384.1340699851903L719.2035231224996 384.1340699851903Q721.4994415692862 378.7769269426881 725.5598158594368 373.8662124870609Q729.6201901495875 368.97675653557076 734.3608365721192 365.7667224108967Q739.1014829946511 362.53542978208577 743.3957008303076 362.53542978208577L743.3957008303076 362.53542978208577Q743.8421294171827 362.53542978208577 744.4586260371533 362.9180828565502Q745.0751226571239 363.30073593101474 745.3727417150407 363.6196134930684L745.3727417150407 363.6196134930684L746.1380478639695 364.38491964199727Q747.987537723881 366.2131509977719 749.730735063108 366.53202855982556Q751.4951909064717 366.82964761774235 752.5793746174544 368.3602599156002L752.5793746174544 368.3602599156002Q754.4076059732291 371.27267498235744 754.4076059732291 375.39682478491875L754.4076059732291 375.39682478491875Q754.4076059732291 381.07284538947476 750.9637283030489 387.7267571843288Q747.519850632869 394.3806689791828 741.6950204993544 399.73781202168516L741.6950204993544 399.73781202168516Q738.8038639367343 402.33134952638864 735.2749522500065 404.4784584442169Q731.7460405632788 406.6255673620452 727.7707002896758 406.6255673620452ZM728.8548840006584 404.946145535229L728.8548840006584 404.946145535229Q732.5113467122077 404.946145535229 736.3378774568522 402.4163835429363Q740.1644082014967 399.88662155064355 743.4594763427184 395.76247174808225Q746.7545444839401 391.61706344138395 749.1354969472744 387.0252265478106Q751.4951909064717 382.4333896542372 752.1116875264423 378.3092398516759L752.1116875264423 378.3092398516759Q752.2604970554006 377.54393370274704 752.3455310719484 376.69359353727043Q752.4093065843591 375.8645118759308 752.4093065843591 375.24801525596035L752.4093065843591 375.24801525596035Q752.4093065843591 371.12386545339905 750.4322656996261 369.2106000810768Q748.4339663107563 367.29733470875453 745.6916192770944 367.29733470875453L745.6916192770944 367.29733470875453Q742.7792042103371 367.29733470875453 739.7179796146214 369.12556606452915L739.7179796146214 369.12556606452915Q736.8055645478643 370.80498789134526 732.3625371832494 376.09835542143685Q727.9195098186343 381.37046444739156 724.4118566360436 387.0252265478106L724.4118566360436 387.0252265478106Q721.2018225113694 392.08475053239613 721.2018225113694 396.8253969549279L721.2018225113694 396.8253969549279Q721.2018225113694 400.2054991126972 723.1150878836917 402.56519307189467Q725.0283532560139 404.946145535229 728.8548840006584 404.946145535229ZM764.0589668513879 406.00907074207475L764.0589668513879 406.00907074207475Q761.7630484046011 406.00907074207475 759.7647490157314 404.4784584442169Q757.7664496268613 402.9478461463591 756.5547148910574 400.9708052616261Q755.3217216511163 398.9725058727562 755.3217216511163 397.59070310385687L755.3217216511163 397.59070310385687Q755.3217216511163 392.3823695903129 758.5317557757904 386.64257347334615Q761.7630484046011 380.9027773563794 766.737538372639 375.8645118759308Q771.712028340677 370.80498789134526 777.2179809121377 367.67998778321896Q782.7239334835984 364.53372917095567 787.4645799061301 364.53372917095567L787.4645799061301 364.53372917095567Q788.229886055059 364.53372917095567 788.995192203988 364.83134822887246Q789.7604983529169 365.15022579092624 790.9934915928578 366.2131509977719L790.9934915928578 366.2131509977719Q797.1159407842891 353.5218240280343 804.4501247115244 341.19189162862426Q811.8055671428966 328.86195922921416 818.6933224832566 320.76246915305L818.6933224832566 320.76246915305Q824.6669621457294 313.55583625063616 830.8531868495714 309.6655299935809Q837.0606700575503 305.75396523238874 843.6508063399937 304.2233529345309L843.6508063399937 304.2233529345309Q848.242643233567 303.01161819872686 853.1320991850572 303.01161819872686L853.1320991850572 303.01161819872686Q853.8974053339861 303.01161819872686 854.8115210118734 303.01161819872686Q855.7256366897606 303.01161819872686 856.4909428386896 303.16042772768526L856.4909428386896 303.16042772768526Q858.0215551365474 303.30923725664366 860.0198545254174 304.07454340557257Q862.0181539142872 304.8398495545015 862.315772972204 305.75396523238874L862.315772972204 305.75396523238874Q862.6133920301207 306.37046185235926 862.315772972204 306.51927138131765Q862.0181539142872 306.6680809102761 861.5504668232751 306.22165232340086L861.5504668232751 306.22165232340086Q860.4875416164294 305.30753664551355 858.871895302024 304.9248835710491Q857.2562489876185 304.5422304965847 855.4280176318438 304.5422304965847L855.4280176318438 304.5422304965847Q852.5156025650866 304.5422304965847 849.6031874983295 305.30753664551355Q846.7120309357091 306.07284279444247 845.0113506047561 306.8381489433714L845.0113506047561 306.8381489433714Q839.9730851243074 309.43168644807486 834.6159420818052 314.1085573581959Q829.258799039303 318.76416976418005 824.050465525759 324.7378094266529L824.050465525759 324.7378094266529Q816.5462135654283 333.3049865938292 809.8923017705744 343.4027760588633Q803.2383899757202 353.5218240280343 798.115090478724 363.6196134930684Q792.9705324775908 373.7174029581025 790.1431514273812 382.4333896542372Q787.3157703771718 391.17063485450876 787.3157703771718 397.14427451698157L787.3157703771718 397.14427451698157Q787.3157703771718 398.05839019486893 787.4008043937193 398.88747185620855Q787.4645799061301 399.73781202168516 787.6133894350886 400.503118170614L787.6133894350886 400.503118170614Q788.0810765261007 402.5014175594839 789.1440017329463 403.2667237084129Q790.228185443929 404.03202985734174 791.6099882128284 404.03202985734174L791.6099882128284 404.03202985734174Q793.1406005106861 404.03202985734174 794.5861787919963 403.3304992208235Q796.0317570733065 402.6502270884423 797.1159407842891 401.73611141055505L797.1159407842891 401.73611141055505Q800.0283558510463 399.1213154017146 803.769852579143 394.2318594502244Q807.51134930724 389.32114499459726 810.8914514650093 384.4316890431071L810.8914514650093 384.4316890431071Q811.5079480849798 383.66638289417824 811.6567576139381 383.96400195209503Q811.8055671428966 384.2828795141487 811.5079480849798 384.5804985720655L811.5079480849798 384.5804985720655Q810.8914514650093 385.66468228304814 808.744342547181 388.8747164077221Q806.5972336293527 392.08475053239613 803.9186621081016 395.76247174808225Q801.2400905868504 399.44019296376837 798.7953626111051 401.88492093951345L798.7953626111051 401.88492093951345Q794.8200223375023 405.86026121311636 790.674614030804 405.86026121311636L790.674614030804 405.86026121311636Q787.6133894350886 405.86026121311636 785.4875390213971 403.2667237084129Q783.3404301035688 400.6519276995724 783.3404301035688 395.91128127704064L783.3404301035688 395.91128127704064Q783.3404301035688 394.3806689791828 783.6380491614856 390.8517572924551Q783.9569267235394 387.34410410986436 784.552164839373 384.89937613411917L784.552164839373 384.89937613411917Q781.0445116567822 390.7029477634967 777.2817564245485 395.5286282025762Q773.5402596964515 400.3543086416556 770.0963820262715 403.18168969186513Q766.6525043560915 406.00907074207475 764.0589668513879 406.00907074207475ZM762.9747831404053 404.03202985734174L762.9747831404053 404.03202985734174Q764.3565859093047 404.03202985734174 766.036007736121 402.7990366174007L766.036007736121 402.7990366174007Q768.7996132739198 400.6519276995724 772.2434909440998 396.9742064838863Q775.6873686142798 393.31774377233717 779.13124628446 389.1085599532282Q782.5751239546399 384.89937613411917 785.1686614593435 381.07284538947476L785.1686614593435 381.07284538947476Q785.9339676082724 378.6068589095927 787.3157703771718 375.24801525596035Q788.6975731460712 371.8891716023279 789.7604983529169 369.12556606452915L789.7604983529169 369.12556606452915Q787.7834574681839 368.82794700661236 785.253695475891 369.657028667952Q782.7239334835984 370.5073688334285 781.6610082767526 371.12386545339905L781.6610082767526 371.12386545339905Q777.5155999700545 373.56859342914413 773.0087970930286 377.92658677721147Q768.480735711866 382.2845801252788 764.9730825292753 387.2590700933166Q761.4441708425476 392.2335600613545 759.7647490157314 396.8253969549279L759.7647490157314 396.8253969549279Q759.2970619247193 397.90958066591054 759.2970619247193 399.270124930673L759.2970619247193 399.270124930673Q759.2970619247193 401.1196147905845 760.2962116191542 402.56519307189467Q761.2953613135891 404.03202985734174 762.9747831404053 404.03202985734174ZM812.7196828207838 406.00907074207475L812.7196828207838 406.00907074207475Q809.5096486961098 406.00907074207475 807.8940023817044 402.88407063394834Q806.2996145714359 399.73781202168516 806.2996145714359 397.4418935748985L806.2996145714359 397.4418935748985Q806.2996145714359 392.08475053239613 809.5096486961098 386.2599203988817Q812.7196828207838 380.4563487695042 817.6941727888217 375.24801525596035Q822.6686627568596 370.0396817424164 828.1746153283203 366.82964761774235Q833.7018264039178 363.6196134930684 838.4424728264497 363.6196134930684L838.4424728264497 363.6196134930684Q839.8242755953491 363.6196134930684 841.5674729345761 364.7675727164617Q843.3319287779399 365.9155319398551 844.8625410757976 368.3602599156002L844.8625410757976 368.3602599156002Q845.1814186378514 368.657878973517 845.6278472247267 369.657028667952Q846.0955343157387 370.65617836238687 845.6278472247267 371.42148451131584L845.6278472247267 371.42148451131584L845.4790376957682 371.12386545339905Q845.1814186378514 370.3585593044701 844.0972349268687 369.8058381969104Q843.0343097200231 369.27437559348755 840.8872008021948 369.27437559348755L840.8872008021948 369.27437559348755Q837.3582891154671 369.27437559348755 833.0002957673997 371.71910356923263Q828.6423024193324 374.1850900491146 824.284309071265 378.3092398516759Q819.9263157231977 382.4333896542372 816.39740403647 387.34410410986436Q812.8684923497423 392.2335600613545 811.189070522926 397.2930840459401L811.189070522926 397.2930840459401Q810.1261453160804 399.88662155064355 810.1261453160804 401.73611141055505L810.1261453160804 401.73611141055505Q810.1261453160804 404.03202985734174 811.8055671428966 404.03202985734174L811.8055671428966 404.03202985734174Q813.0385603828375 404.03202985734174 814.7179822096538 402.7990366174007L814.7179822096538 402.7990366174007Q817.9280163343277 400.3543086416556 821.4569280210554 396.5277778970111Q824.9645812036462 392.7012471523666 828.2596493448679 388.5558388456684Q831.5547174860895 384.4316890431071 834.0844794783824 380.9027773563794Q836.5929829665382 377.39512417378864 837.6771666775209 375.7157023469724L837.6771666775209 375.7157023469724Q838.1235952643959 375.09920572700196 838.825125900914 375.0141717104542Q839.5053980332954 374.95039619804356 840.589581744278 374.95039619804356L840.589581744278 374.95039619804356Q843.6508063399937 374.95039619804356 844.4798880013333 375.9282873883416Q845.3302281668099 376.92743708277646 844.5649220178808 378.0116207937591L844.5649220178808 378.0116207937591Q842.566622629011 380.9027773563794 840.355738198772 384.7293081010239Q838.1235952643959 388.5558388456684 836.5292074541275 392.2335600613545Q834.913561139722 395.91128127704064 834.913561139722 398.8236963437978L834.913561139722 398.8236963437978Q834.913561139722 401.1196147905845 836.7630509996335 401.1196147905845L836.7630509996335 401.1196147905845Q838.4424728264497 401.1196147905845 840.4195137111827 399.1213154017146L840.4195137111827 399.1213154017146Q842.2690035710942 397.4418935748985 844.7987655633868 394.2318594502244Q847.3072690515429 391.02182532555037 849.8370310438355 387.49291363882276Q852.3667930361283 383.96400195209503 854.0462148629446 381.37046444739156L854.0462148629446 381.37046444739156Q854.6627114829149 380.6051582984626 855.0453645573795 380.6901923150102Q855.4280176318438 380.753967827421 854.9603305408317 381.66808350530835L854.9603305408317 381.66808350530835Q852.5156025650866 385.49461424995286 849.9220650603833 389.5549885401034Q847.3072690515429 393.61536283025396 844.4161124889225 397.14427451698157L844.4161124889225 397.14427451698157Q838.8889014133248 404.18083938630014 836.1465543796629 404.18083938630014L836.1465543796629 404.18083938630014Q833.7018264039178 404.18083938630014 831.5547174860895 402.6502270884423Q829.4076085682613 401.1196147905845 829.4076085682613 398.20719972382733L829.4076085682613 398.20719972382733Q829.4076085682613 395.1459751281117 830.7043773206129 391.0856008379611Q832.0011460729648 387.0252265478106 833.0853297839473 384.7293081010239L833.0853297839473 384.7293081010239Q829.8752956592733 389.64002255665105 825.7298873525752 394.5294785081412Q821.6057375500139 399.44019296376837 818.0130503508755 402.71400260085306Q814.3991046476 406.00907074207475 812.7196828207838 406.00907074207475ZM861.4016572943166 406.6255673620452L861.4016572943166 406.6255673620452Q856.6610108717849 406.6255673620452 853.3659427305632 403.0966556753175Q850.0708745893415 399.58900249272676 850.0708745893415 393.61536283025396L850.0708745893415 393.61536283025396Q850.0708745893415 389.17233546563887 852.0691739782116 384.1340699851903L852.0691739782116 384.1340699851903Q854.3650924249981 378.7769269426881 858.1065891530951 373.95124650360856Q861.8480858811919 369.12556606452915 866.291113245807 365.97930745226586Q870.7341406104218 362.85430734413944 875.0283584460784 362.85430734413944L875.0283584460784 362.85430734413944Q877.9195150086988 362.85430734413944 880.6831205464977 364.44869515440803Q883.4467260842963 366.0643414688135 882.6814199353674 369.5932531555412L882.6814199353674 369.5932531555412Q882.5113519022722 370.0396817424164 882.1286988278079 370.1884912713748Q881.7460457533433 370.3585593044701 881.7460457533433 370.1884912713748L881.7460457533433 370.1884912713748Q880.6831205464977 367.12726667565914 877.1542088597699 367.12726667565914L877.1542088597699 367.12726667565914Q875.1771679750369 367.12726667565914 873.0300590572086 368.5090694445586L873.0300590572086 368.5090694445586Q868.735841221552 371.71910356923263 864.9943444934551 376.09835542143685Q861.2528477653583 380.4563487695042 858.6380517565179 384.89937613411917Q856.0445142518143 389.32114499459726 855.130398573927 392.9988662102834L855.130398573927 392.9988662102834Q854.8115210118734 394.5294785081412 854.5776774663674 395.6774377315346Q854.3650924249981 396.8253969549279 854.3650924249981 398.05839019486893L854.3650924249981 398.05839019486893Q854.3650924249981 401.88492093951345 856.3421333097311 403.4793087497819Q858.3404326986011 405.0949550641874 861.082779732263 405.0949550641874L861.082779732263 405.0949550641874Q865.5258070968779 405.0949550641874 869.3523378415224 402.33134952638864L869.3523378415224 402.33134952638864Q872.7324399992918 399.73781202168516 875.6235965619122 396.3789683680527Q878.5360116286694 392.9988662102834 881.299617166468 388.8747164077221L881.299617166468 388.8747164077221Q881.7460457533433 388.1094102587932 882.2137328443554 388.1094102587932L882.2137328443554 388.1094102587932Q882.3625423733139 388.1094102587932 882.3625423733139 388.40702931671L882.3625423733139 388.40702931671Q882.3625423733139 388.8747164077221 881.7460457533433 389.93764161456784L881.7460457533433 389.93764161456784Q879.4501273065565 393.31774377233717 876.5589707439364 397.2080500293923Q873.6465556771792 401.1196147905845 870.1176439904515 403.5643427663297L870.1176439904515 403.5643427663297Q867.9705350726232 405.0949550641874 865.7596506423839 405.86026121311636Q863.5487662121451 406.6255673620452 861.4016572943166 406.6255673620452ZM910.5300603547247 360.0907018063407L910.5300603547247 360.0907018063407Q908.2341419079381 359.17658612845344 906.6184955935327 357.1145112271728Q905.024107783264 355.05243632589213 905.4705363701393 352.58644984601005L905.4705363701393 352.58644984601005Q905.789413932193 351.2259055812476 906.3208765356159 350.8432525067832Q906.8523391390387 350.46059943231865 909.467135147879 350.29053139922337L909.467135147879 350.29053139922337L917.5666252240432 348.92998713446093Q918.9484279929426 348.61110957240714 918.9484279929426 348.92998713446093L918.9484279929426 348.92998713446093Q918.9484279929426 349.5252252502945 917.8855027860969 349.8441028123482L917.8855027860969 349.8441028123482Q915.4195163062149 350.46059943231865 913.5912849504404 351.6723341681228Q911.7630535946658 352.90532740806384 910.5300603547247 355.05243632589213L910.5300603547247 355.05243632589213Q910.2324412968079 355.4988649127673 910.2324412968079 356.41298059065457L910.2324412968079 356.41298059065457Q910.2324412968079 357.3483547726788 910.6150943712724 358.17743643401843Q910.9977474457368 359.02777659949504 911.4441760326121 359.6442732194655L911.4441760326121 359.6442732194655Q911.9118631236241 360.2395113352991 911.5292100491596 360.2395113352991Q911.1465569746953 360.2395113352991 910.5300603547247 360.0907018063407ZM892.6303998714433 406.4767578330868L892.6303998714433 406.4767578330868Q887.4220663578993 406.4767578330868 885.3599914566186 403.18168969186513Q883.276658051201 399.88662155064355 883.276658051201 395.29478465707007L883.276658051201 395.29478465707007Q883.276658051201 391.78713147447934 884.2758077456361 388.1094102587932Q885.274957440071 384.4316890431071 886.8055697379287 381.51927397634984L886.8055697379287 381.51927397634984Q885.4237669690293 380.9027773563794 885.8914540600416 380.4563487695042L885.8914540600416 380.4563487695042Q886.9543792668873 378.92573647164636 888.5700255812927 376.6298180248597Q890.1644133915612 374.333899578073 891.8650937225144 372.0379811312863L891.8650937225144 372.0379811312863Q893.8421346072474 369.42318512244594 895.4577809216527 367.7437632956297Q897.0521687319214 366.0643414688135 898.9016585918329 366.0643414688135L898.9016585918329 366.0643414688135Q900.1133933276368 366.0643414688135 901.1125430220719 366.82964761774235Q902.1116927165068 367.5949537666713 903.1746179233525 368.3602599156002L903.1746179233525 368.3602599156002Q899.6669647407617 372.0379811312863 896.138053054034 377.39512417378864Q892.6303998714433 382.7522672162909 890.3982569370672 388.64087286221604Q888.1873725068282 394.5294785081412 888.1873725068282 400.2054991126972L888.1873725068282 400.2054991126972Q888.1873725068282 402.6502270884423 889.3353317302216 403.6493767828773Q890.483290953615 404.6272679731753 892.1627127804312 404.6272679731753L892.1627127804312 404.6272679731753Q895.6916244671589 404.6272679731753 898.4339715008208 402.18253999743024L898.4339715008208 402.18253999743024Q901.346386567578 399.58900249272676 905.2579513287702 394.61451252468885Q909.1482575858253 389.64002255665105 912.677169272553 384.1340699851903L912.677169272553 384.1340699851903Q913.5912849504404 382.90107674524927 914.1227475538632 382.7522672162909Q914.654210157286 382.6034576873325 914.2077815704107 383.36876383626145L914.2077815704107 383.36876383626145Q912.9747883304698 385.81349181200653 910.4450263381772 389.5549885401034Q907.9365228500213 393.31774377233717 905.1729173122225 396.9742064838863Q902.4093117744236 400.6519276995724 900.4322708896906 402.6502270884423L900.4322708896906 402.6502270884423Q898.4339715008208 404.6272679731753 896.37189659954 405.56264215519957Q894.3098216982595 406.4767578330868 892.6303998714433 406.4767578330868ZM918.3319313729722 406.6255673620452L918.3319313729722 406.6255673620452Q913.8889040083571 406.6255673620452 910.7639039002307 403.2667237084129Q907.6176452879675 399.88662155064355 907.6176452879675 394.083049921266L907.6176452879675 394.083049921266Q907.6176452879675 391.93594100343773 908.1491078913904 389.406179011145Q908.7018289989502 386.8764170188522 909.7647542057958 384.1340699851903L909.7647542057958 384.1340699851903Q912.0606726525824 378.7769269426881 916.121046942733 373.8662124870609Q920.1814212328835 368.97675653557076 924.9220676554154 365.7667224108967Q929.6627140779473 362.53542978208577 933.9569319136039 362.53542978208577L933.9569319136039 362.53542978208577Q934.4033605004789 362.53542978208577 935.0198571204495 362.9180828565502Q935.6363537404201 363.30073593101474 935.9339727983369 363.6196134930684L935.9339727983369 363.6196134930684L936.6992789472657 364.38491964199727Q938.5487688071772 366.2131509977719 940.2919661464042 366.53202855982556Q942.0564219897682 366.82964761774235 943.1406057007506 368.3602599156002L943.1406057007506 368.3602599156002Q944.9688370565253 371.27267498235744 944.9688370565253 375.39682478491875L944.9688370565253 375.39682478491875Q944.9688370565253 381.07284538947476 941.5249593863451 387.7267571843288Q938.0810817161652 394.3806689791828 932.2562515826506 399.73781202168516L932.2562515826506 399.73781202168516Q929.3650950200305 402.33134952638864 925.8361833333028 404.4784584442169Q922.307271646575 406.6255673620452 918.3319313729722 406.6255673620452ZM919.4161150839547 404.946145535229L919.4161150839547 404.946145535229Q923.0725777955039 404.946145535229 926.8991085401484 402.4163835429363Q930.7256392847929 399.88662155064355 934.0207074260146 395.76247174808225Q937.3157755672363 391.61706344138395 939.6967280305706 387.0252265478106Q942.0564219897682 382.4333896542372 942.6729186097385 378.3092398516759L942.6729186097385 378.3092398516759Q942.821728138697 377.54393370274704 942.9067621552446 376.69359353727043Q942.9705376676553 375.8645118759308 942.9705376676553 375.24801525596035L942.9705376676553 375.24801525596035Q942.9705376676553 371.12386545339905 940.9934967829223 369.2106000810768Q938.9951973940525 367.29733470875453 936.2528503603907 367.29733470875453L936.2528503603907 367.29733470875453Q933.3404352936333 367.29733470875453 930.2792106979176 369.12556606452915L930.2792106979176 369.12556606452915Q927.3667956311605 370.80498789134526 922.9237682665456 376.09835542143685Q918.4807409019305 381.37046444739156 914.9730877193398 387.0252265478106L914.9730877193398 387.0252265478106Q911.7630535946658 392.08475053239613 911.7630535946658 396.8253969549279L911.7630535946658 396.8253969549279Q911.7630535946658 400.2054991126972 913.6763189669879 402.56519307189467Q915.5895843393101 404.946145535229 919.4161150839547 404.946145535229ZM953.5360142237015 404.7973360062706L953.5360142237015 404.7973360062706Q950.1771705700693 404.7973360062706 948.4127147267053 403.2667237084129Q946.6482588833416 401.73611141055505 946.9671364453951 399.270124930673L946.9671364453951 399.270124930673Q947.2647555033119 397.59070310385687 947.8812521232825 395.44359418602846Q948.497748743253 393.31774377233717 949.4118644211402 391.17063485450876L949.4118644211402 391.17063485450876L953.0895856368264 382.6034576873325Q952.9195176037309 382.2845801252788 952.8557420913204 382.0507365797728Q952.7707080747726 381.8381515384036 952.7707080747726 381.66808350530835L952.7707080747726 381.66808350530835Q952.6218985458144 381.07284538947476 952.9195176037309 380.6051582984626L952.9195176037309 380.6051582984626Q956.9161163814709 374.4827091070314 960.2749600351032 370.3585593044701Q963.6338036887356 366.2131509977719 964.7179873997183 366.2131509977719L964.7179873997183 366.2131509977719Q966.8650963175465 366.2131509977719 969.7562528801669 369.12556606452915L969.7562528801669 369.12556606452915Q967.7792119954339 371.57029404027423 965.6321030776056 374.567743123579Q963.4849941597773 377.54393370274704 961.5079532750443 380.6051582984626L961.5079532750443 380.6051582984626Q959.360844357216 383.81519242313664 956.9798918938815 387.5779476553704Q954.6201979346841 391.31944438346716 953.68482375266 394.3806689791828L953.68482375266 394.3806689791828Q952.7707080747726 397.14427451698157 952.7707080747726 398.6748868148394L952.7707080747726 398.6748868148394Q952.7707080747726 400.8007372285308 954.3013203726304 400.8007372285308L954.3013203726304 400.8007372285308Q956.2996197615004 400.8007372285308 960.1261505061449 396.6765874259695L960.1261505061449 396.6765874259695Q962.7196880108485 393.91298188817075 965.8659466231117 389.8738661021571Q968.9909467312378 385.81349181200653 971.9033617979952 381.66808350530835L971.9033617979952 381.66808350530835Q974.9645863937106 377.39512417378864 977.643157914962 373.6323689415549Q980.3217294362131 369.890872213458 982.1712192961246 367.5949537666713L982.1712192961246 367.5949537666713Q983.8506411229408 365.44784484884303 985.2324438918403 365.44784484884303L985.2324438918403 365.44784484884303Q987.209484776573 365.44784484884303 989.8242807854136 368.82794700661236L989.8242807854136 368.82794700661236Q987.6771718675853 371.8891716023279 984.6159472718697 376.69359353727043Q981.554722676154 381.51927397634984 979.0249606838612 386.49376394438775Q976.4951986915686 391.46825391242567 975.7298925426397 395.29478465707007L975.7298925426397 395.29478465707007Q975.5810830136812 395.91128127704064 975.4960489971337 396.5277778970111Q975.4322734847229 397.14427451698157 975.4322734847229 397.90958066591054L975.4322734847229 397.90958066591054Q975.4322734847229 402.33134952638864 977.7281919315095 402.33134952638864L977.7281919315095 402.33134952638864Q978.9399266673137 402.33134952638864 980.7043825106774 400.9708052616261Q982.4688383540414 399.58900249272676 984.1482601808576 397.73951263281526Q985.8276820076738 395.91128127704064 986.763056189698 394.6782880370996L986.763056189698 394.6782880370996Q991.6525121411881 388.1094102587932 996.0955395058032 381.07284538947476L996.0955395058032 381.07284538947476Q997.0096551836904 379.69104262057533 997.3072742416072 379.69104262057533L997.3072742416072 379.69104262057533Q997.626151803661 379.69104262057533 997.5411177871134 380.22250522399816Q997.4773422747027 380.753967827421 997.3072742416072 381.07284538947476L997.3072742416072 381.07284538947476Q994.2460496458917 386.1111108699233 990.206933859878 392.08475053239613Q986.1465595697274 398.05839019486893 982.1712192961246 401.88492093951345L982.1712192961246 401.88492093951345Q980.0241103782963 404.03202985734174 977.877001460468 404.03202985734174L977.877001460468 404.03202985734174Q973.7528516579067 404.03202985734174 971.7545522690367 402.03373046847184Q969.7562528801669 400.03543107960195 969.7562528801669 397.59070310385687L969.7562528801669 397.59070310385687Q969.7562528801669 396.06009080599904 970.223939971179 394.2956349626352Q970.6916270621911 392.5524376234082 971.2868651780246 390.7029477634967L971.2868651780246 390.7029477634967L975.4322734847229 379.8398521495337Q973.1363550379361 382.7522672162909 971.6057427400784 384.66553258861313Q970.0751304422205 386.5787979609354 968.8421372022796 388.2582197877516L968.8421372022796 388.2582197877516Q967.7792119954339 389.78883208560944 966.3974092265345 391.7020974579317Q965.015606457635 393.61536283025396 963.4849941597773 395.44359418602846L963.4849941597773 395.44359418602846Q960.57257909302 399.270124930673 957.8302320593581 402.03373046847184Q955.0666265215594 404.7973360062706 953.5360142237015 404.7973360062706ZM1000.8361859283349 404.32964891525853L1000.8361859283349 404.32964891525853Q997.3072742416072 404.32964891525853 994.4798931913978 402.56519307189467Q991.6525121411881 400.8007372285308 991.6525121411881 397.4418935748985L991.6525121411881 397.4418935748985Q991.6525121411881 396.20890033495743 992.1201992322002 394.8483560701949L992.1201992322002 394.8483560701949Q992.5666278190755 393.31774377233717 993.3319339680044 392.5524376234082L993.3319339680044 392.5524376234082Q993.3319339680044 394.2318594502244 994.416117678987 395.5286282025762Q995.4790428858327 396.8253969549279 996.8608456547321 397.59070310385687L996.8608456547321 397.59070310385687Q998.2426484236315 398.20719972382733 999.5394171759832 398.5048187817441Q1000.8361859283349 398.8236963437978 1001.8991111351805 398.8236963437978L1001.8991111351805 398.8236963437978Q1005.4280228219085 398.8236963437978 1007.4263222107783 396.2939343515051Q1009.4033630955113 393.76417235921235 1009.4033630955113 390.8517572924551L1009.4033630955113 390.8517572924551Q1009.4033630955113 388.2582197877516 1008.0215603266118 386.2599203988817L1008.0215603266118 386.2599203988817Q1007.1074446487245 385.04818566307756 1006.0445194418788 384.04903596864267Q1004.9603357308962 383.04988627420767 1003.748600995092 381.986961067362L1003.748600995092 381.986961067362Q1002.8344853172049 381.22165491843316 1002.069179168276 380.1374712074505Q1001.3038730193472 379.07454600060476 1000.070879779406 376.92743708277646L1000.070879779406 376.92743708277646L993.6508115300581 386.7276074898938Q991.3548930832713 390.08645114352623 989.3565936944016 392.9988662102834Q987.3582943055316 395.91128127704064 984.1482601808576 399.73781202168516L984.1482601808576 399.73781202168516Q983.2341445029703 400.8007372285308 982.7026818995474 400.73696171612005Q982.1712192961246 400.6519276995724 982.9365254450535 399.58900249272676L982.9365254450535 399.58900249272676Q986.4441786276442 395.1459751281117 988.740097074431 391.93594100343773Q991.0360155212178 388.7259068787637 994.0972401169332 384.1340699851903L994.0972401169332 384.1340699851903Q995.6278524147912 381.986961067362 997.2434987291966 379.22335552956315Q998.8378865394651 376.4810084959013 999.603192688394 373.56859342914413L999.603192688394 373.56859342914413Q999.603192688394 368.82794700661236 1002.8344853172049 365.2140013033369Q1006.0445194418788 361.6213141041985 1010.700131847863 359.70804873187626Q1015.3770027579841 357.794783359554 1019.5011525605454 358.26247045056607L1019.5011525605454 358.26247045056607Q1020.4365267425695 358.26247045056607 1021.4994519494154 359.6442732194655Q1022.562377156261 361.00481748422794 1023.3276833051899 362.6204637986334Q1024.0929894541187 364.2361101130389 1024.0929894541187 365.15022579092624L1024.0929894541187 365.15022579092624Q1024.0929894541187 365.5966543778014 1023.795370396202 365.5966543778014L1023.795370396202 365.5966543778014Q1023.3276833051899 365.5966543778014 1022.562377156261 365.00141626196785L1022.562377156261 365.00141626196785Q1021.3506424204569 363.9172325509852 1018.9059144447118 363.9172325509852L1018.9059144447118 363.9172325509852Q1015.6746218159009 363.9172325509852 1011.8480910712564 365.68168839434907Q1008.0215603266118 367.44614423771293 1005.1941792764025 370.12471575896404Q1002.3667982261928 372.80328728021516 1002.3667982261928 375.7157023469724L1002.3667982261928 375.7157023469724Q1002.3667982261928 377.84155276066383 1004.1312540695566 379.69104262057533Q1005.8957099129206 381.51927397634984 1008.1065943431596 383.1349202907554Q1010.3174787733984 384.7293081010239 1011.6992815422979 386.5787979609354L1011.6992815422979 386.5787979609354Q1013.2298938401558 388.2582197877516 1013.8463904601261 389.93764161456784Q1014.4628870800967 391.61706344138395 1014.4628870800967 393.31774377233717L1014.4628870800967 393.31774377233717Q1014.4628870800967 396.20890033495743 1012.6133972201852 398.58985279829176Q1010.7851658644107 400.9708052616261 1008.1916283597071 402.5014175594839L1008.1916283597071 402.5014175594839Q1004.9603357308962 404.32964891525853 1000.8361859283349 404.32964891525853ZM1050.8787046666303 428.67063615202494L1050.8787046666303 428.67063615202494Q1046.1380582440984 428.67063615202494 1041.5462213505252 427.37386739967314Q1036.9543844569516 426.0558401431846 1033.9781938777837 422.84580601851053Q1030.980744794479 419.6357718938365 1030.980744794479 414.12981932237585L1030.980744794479 414.12981932237585Q1030.980744794479 413.0456356113932 1031.9161189765032 413.0456356113932L1031.9161189765032 413.0456356113932Q1032.8302346543906 413.0456356113932 1032.8302346543906 414.27862885133425L1032.8302346543906 414.27862885133425Q1032.8302346543906 417.95635006702037 1035.126153101177 420.018424968301Q1037.4220715479637 422.0804998695817 1040.6321056726379 422.93084003505817Q1043.842139797312 423.7599216963978 1046.4569358061522 423.7599216963978L1046.4569358061522 423.7599216963978Q1048.1363576329686 423.7599216963978 1049.730745443237 423.69614618398714Q1051.3463917576423 423.6111121674394 1052.8770040555 423.462302638481L1052.8770040555 423.462302638481Q1061.7630587847302 422.22930939854007 1069.3310862574717 418.0201255794311Q1076.8991137302128 413.81094176032207 1083.4042159961086 407.68849256889087Q1089.909318262004 401.56604337745966 1095.7341483955188 394.76332205364724Q1101.558978529033 387.9606007298348 1106.9161215715353 381.66808350530835L1106.9161215715353 381.66808350530835Q1109.0419719852266 379.07454600060476 1112.18823059749 375.39682478491875Q1115.3344892097534 371.71910356923263 1118.4594893178796 368.0626408576834Q1121.6057479301426 364.38491964199727 1123.752856847971 361.9401916662522L1123.752856847971 361.9401916662522Q1111.9543870519838 364.83134822887246 1099.2630600822463 369.12556606452915Q1086.550474608372 373.41978390018573 1074.1567666965511 375.54563431387714L1074.1567666965511 375.54563431387714Q1072.0096577787226 375.8645118759308 1069.7987733484838 376.4810084959013Q1067.5666304141077 377.07624661173486 1065.4195214962797 377.07624661173486L1065.4195214962797 377.07624661173486Q1062.8259839915759 377.07624661173486 1060.3812560158308 375.54563431387714L1060.3812560158308 375.54563431387714Q1058.5317661559193 374.333899578073 1057.0011538580616 371.95294711473866Q1055.4705415602039 369.5932531555412 1055.4705415602039 367.12726667565914L1055.4705415602039 367.12726667565914Q1055.4705415602039 365.15022579092624 1058.2341470980027 363.0881508896456Q1060.9977526358011 361.00481748422794 1065.2069364549102 358.9427425829473Q1069.4161202740192 356.88066768166664 1074.0717326800032 355.2650213672613Q1078.7486035901243 353.6706335569927 1082.7239438637275 352.6714838625577Q1086.6992841373303 351.6723341681228 1088.6975835262 351.6723341681228L1088.6975835262 351.6723341681228Q1090.5258148819748 351.6723341681228 1090.5258148819748 352.28883078809326L1090.5258148819748 352.28883078809326Q1090.5258148819748 353.05413693702224 1088.3787059641463 353.351755994939L1088.3787059641463 353.351755994939Q1086.0827875173595 353.8194430859511 1082.4263248058105 354.88236829279674Q1078.7486035901243 355.9665520037794 1074.8370388289322 357.4121302850896Q1070.946732571877 358.87896707053665 1067.715439943066 360.40957936839436L1067.715439943066 360.40957936839436Q1063.7400996694632 362.237810724169 1061.826834297141 364.15107609649124Q1059.9135689248187 366.0643414688135 1059.9135689248187 367.7437632956297L1059.9135689248187 367.7437632956297Q1059.9135689248187 370.80498789134526 1065.5895895293747 370.80498789134526L1065.5895895293747 370.80498789134526Q1066.3548956783038 370.80498789134526 1067.1202018272324 370.7412123789345Q1067.8855079761615 370.65617836238687 1068.799623654049 370.5073688334285L1068.799623654049 370.5073688334285Q1078.599794061166 368.97675653557076 1088.4637399806943 366.4469945432779Q1098.3276859002221 363.9172325509852 1107.979046778381 361.3236950462817Q1117.6304076565398 358.70889903744126 1126.9628909726453 357.3483547726788L1126.9628909726453 357.3483547726788L1133.701836784047 349.9929123413066Q1141.354898273336 341.5745447030887 1148.1576195971484 333.39002061037684Q1154.9603409209608 325.205496517665 1162.7834704433449 316.9359384084055L1162.7834704433449 316.9359384084055Q1165.22819841909 314.4912104326604 1166.9076202459064 312.02522395277833Q1168.5870420727224 309.58049597703325 1170.8829605195092 307.13576800128817L1170.8829605195092 307.13576800128817Q1173.178878966296 308.1986932081338 1175.4747974130828 308.4325367536399Q1177.7707158598696 308.666380299146 1179.620205719781 309.43168644807486Q1181.4484370755554 310.1969925970037 1182.0649336955262 313.109407663761L1182.0649336955262 313.109407663761Q1182.3625527534427 314.7888294905772 1181.4484370755554 317.3185914828699Q1180.534321397668 319.84835347516264 1179.620205719781 321.0600882109668L1179.620205719781 321.0600882109668Q1176.7077906530235 325.5031155755818 1173.4127225118018 330.94529263463176Q1170.1176543705806 336.36621118954474 1166.9076202459064 341.7233542320471Q1163.6975861212322 347.08049727454943 1161.1678241289396 351.374715110206Q1158.638062136647 355.6476744417257 1157.4263274008426 357.794783359554L1157.4263274008426 357.794783359554Q1159.105749227659 358.41127997952447 1161.082790112392 359.6442732194655Q1163.0810895012619 360.85600795526955 1164.526667782572 362.471654269675Q1165.993504568019 364.0660420799436 1165.6746270059652 366.0643414688135L1165.6746270059652 366.0643414688135Q1167.672926394835 367.8925728245881 1167.672926394835 370.3585593044701L1167.672926394835 370.3585593044701Q1167.672926394835 372.0379811312863 1165.525817477007 373.6323689415549Q1163.3787085591784 375.24801525596035 1160.4875519965585 376.92743708277646Q1157.575136929801 378.6068589095927 1154.9603409209608 380.3075392405458L1154.9603409209608 380.3075392405458Q1154.8115313920025 380.4563487695042 1154.5776878464962 380.07369569503976Q1154.3651028051272 379.69104262057533 1154.5139123340855 379.54223309161694L1154.5139123340855 379.54223309161694Q1156.661021251914 377.84155276066383 1159.637211831082 375.09920572700196Q1162.6134024102498 372.3356001892031 1162.6134024102498 367.29733470875453L1162.6134024102498 367.29733470875453Q1162.6134024102498 365.00141626196785 1160.5513275089688 363.0881508896456Q1158.4892526076883 361.17488551732333 1156.193334160902 360.2395113352991L1156.193334160902 360.2395113352991Q1151.7503067962866 368.2114503866418 1148.3064291261067 377.54393370274704Q1144.8625514559267 386.8764170188522 1143.1831296291102 394.3806689791828L1143.1831296291102 394.3806689791828Q1143.034320100152 395.61366221912385 1142.8004765546461 396.8253969549279Q1142.5666330091399 398.05839019486893 1142.5666330091399 399.270124930673L1142.5666330091399 399.270124930673Q1142.5666330091399 400.8007372285308 1143.0980956125627 402.56519307189467Q1143.6508167201223 404.32964891525853 1145.6278576048553 404.32964891525853L1145.6278576048553 404.32964891525853Q1148.6890822005712 404.32964891525853 1151.7503067962866 401.3534583360906Q1154.8115313920025 398.3560092527857 1156.3421436898602 396.06009080599904L1156.3421436898602 396.06009080599904Q1156.9586403098306 395.29478465707007 1157.575136929801 394.9971655991533Q1158.1916335497717 394.6782880370996 1157.7239464587597 395.76247174808225L1157.7239464587597 395.76247174808225Q1157.4263274008426 396.5277778970111 1156.9586403098306 397.2930840459401Q1156.4909532188185 398.05839019486893 1156.0445246319432 398.8236963437978L1156.0445246319432 398.8236963437978Q1155.1304089540563 400.03543107960195 1153.8974157141151 402.33134952638864Q1152.664422474174 404.6272679731753 1151.1338101763163 406.4767578330868Q1149.6031978784586 408.30498918886144 1147.6261569937255 408.30498918886144L1147.6261569937255 408.30498918886144Q1146.3931637537844 408.30498918886144 1144.0972453069976 407.00822043650965Q1141.8013268602108 405.71145168415796 1140.4195240913118 404.6272679731753L1140.4195240913118 404.6272679731753Q1139.0589798265491 403.4155332373713 1138.2086396610725 401.3534583360906Q1137.358299495596 399.270124930673 1137.0606804376794 397.73951263281526L1137.0606804376794 397.73951263281526Q1137.0606804376794 397.2930840459401 1136.9756464211318 396.8253969549279Q1136.9118709087206 396.3789683680527 1136.9118709087206 395.76247174808225L1136.9118709087206 395.76247174808225Q1136.9118709087206 391.31944438346716 1138.7401022644954 385.2820292085837Q1140.5895921244069 379.22335552956315 1143.331939158069 372.42063420575073Q1146.0955446958678 365.5966543778014 1148.8378917295295 359.02777659949504L1148.8378917295295 359.02777659949504Q1148.0725855806004 359.02777659949504 1147.3072794316718 358.9427425829473Q1146.5419732827427 358.87896707053665 1145.776667133814 358.87896707053665L1145.776667133814 358.87896707053665Q1141.354898273336 358.87896707053665 1136.9756464211318 359.55923920291787Q1132.617653073064 360.2395113352991 1128.1746257084492 361.17488551732333L1128.1746257084492 361.17488551732333Q1122.817482665947 367.7437632956297 1116.099795358682 376.54478400831204Q1109.3608495472804 385.34580472099435 1101.6227540414438 394.46570299573045Q1093.905917039744 403.5643427663297 1085.4025153849784 411.3024382721662Q1076.8991137302128 419.019275273866 1068.183127034078 423.84495571294553Q1059.4671403379434 428.67063615202494 1050.8787046666303 428.67063615202494ZM1131.5547278662184 356.73185815270824L1131.5547278662184 356.73185815270824Q1135.0623810488091 356.2641710616962 1138.29367367762 356.1153615327378Q1141.5037078022942 355.9665520037794 1144.8625514559267 355.9665520037794L1144.8625514559267 355.9665520037794L1149.922075440512 355.9665520037794Q1150.985000647358 353.6706335569927 1153.8123816975676 348.61110957240714Q1156.661021251914 343.5728440919586 1160.1686744345047 337.5992044294858Q1163.6975861212322 331.625564767013 1166.9076202459064 326.417231253469Q1170.1176543705806 321.2088977399252 1171.967144230492 318.61536023522166L1171.967144230492 318.61536023522166Q1173.0300694373377 316.9359384084055 1173.0300694373377 316.1706322594766L1173.0300694373377 316.1706322594766Q1173.0300694373377 315.086448548494 1171.2656135939737 315.9367887139705Q1169.5011577506098 316.7871288794471 1167.3753073369185 318.61536023522166L1167.3753073369185 318.61536023522166Q1164.1440147081075 321.37896577302047 1159.2545587566174 326.5022652700167Q1154.3651028051272 331.625564767013 1148.9229257460775 337.51417041293814Q1143.4807486870272 343.4027760588633 1138.8251362810433 348.61110957240714Q1134.1482653709218 353.8194430859511 1131.5547278662184 356.73185815270824ZM1144.5649323980097 452.5439362977793L1144.5649323980097 452.5439362977793Q1142.4178234801816 452.5439362977793 1139.8242859754782 451.01332399992145Q1137.2094899666376 449.4827117020636 1135.4450341232737 447.2718272718246Q1133.701836784047 445.03968433744865 1133.701836784047 442.74376589066196L1133.701836784047 442.74376589066196Q1133.701836784047 440.2990379149169 1136.4441838177086 436.62131669923076Q1139.2077893555074 432.94359548354464 1143.1831296291102 429.1170647389001Q1147.1584699027135 425.2905339942556 1151.0700346639055 422.0804998695817Q1154.9603409209608 418.8704657449076 1157.2562593677476 417.1910439180914L1157.2562593677476 417.1910439180914Q1165.993504568019 411.2174042556186 1175.623606942041 406.71060137859286Q1185.2749678202 402.18253999743024 1194.4586416073466 399.270124930673L1194.4586416073466 399.270124930673Q1195.6916348472878 397.14427451698157 1196.9033695830917 393.1476757392418Q1198.1363628230329 389.17233546563887 1199.0504785009202 385.04818566307756Q1199.9645941788076 380.9027773563794 1199.9645941788076 378.4580493806343L1199.9645941788076 378.4580493806343Q1197.6686757320208 381.51927397634984 1194.373607590799 385.2820292085837Q1191.0997979537142 389.02352593668047 1187.5708862669867 392.5524376234082Q1184.0419745802587 396.06009080599904 1180.5980969100788 398.3560092527857Q1177.1542192398988 400.6519276995724 1174.5606817351954 400.6519276995724L1174.5606817351954 400.6519276995724Q1171.3506476105213 400.6519276995724 1168.9059196347762 398.9725058727562Q1166.4399331548943 397.2930840459401 1166.4399331548943 393.61536283025396L1166.4399331548943 393.61536283025396Q1166.4399331548943 391.78713147447934 1167.205239303823 389.49121302769265Q1167.970545452752 387.19529458090597 1169.6712257837053 384.2828795141487L1169.6712257837053 384.2828795141487Q1171.4994571394795 381.22165491843316 1174.94333480966 377.24631464483025Q1178.38721247984 373.24971586709034 1182.5963962989485 369.5082191389936Q1186.8055801180576 365.7667224108967 1191.0997979537142 363.236960418604Q1195.372757285234 360.70719842631115 1198.7528594430032 360.70719842631115L1198.7528594430032 360.70719842631115Q1200.7299003277362 360.70719842631115 1202.9620432621123 362.3228447407166Q1205.1729276923515 363.9172325509852 1205.789424312322 365.9155319398551L1205.789424312322 365.9155319398551Q1206.4059209322922 367.44614423771293 1206.3208869157447 368.12641637009415Q1206.2358528991972 368.82794700661236 1206.0870433702385 369.12556606452915L1206.0870433702385 369.12556606452915Q1205.789424312322 369.42318512244594 1205.1729276923515 368.657878973517L1205.1729276923515 368.657878973517Q1204.7052406013395 367.8925728245881 1202.9620432621123 367.44614423771293Q1201.1975874187483 366.97845714670075 1199.3480975588368 366.97845714670075L1199.3480975588368 366.97845714670075Q1198.5827914099082 366.97845714670075 1197.817485260979 367.12726667565914Q1197.0521791120505 367.29733470875453 1196.2868729631214 367.5949537666713L1196.2868729631214 367.5949537666713Q1193.0768388384472 369.12556606452915 1189.2503080938027 371.95294711473866Q1185.4237773491586 374.7803281649482 1181.9161241665674 378.3092398516759L1181.9161241665674 378.3092398516759Q1176.7077906530235 383.51757336521985 1174.4756477186475 387.7267571843288Q1172.2647632884086 391.93594100343773 1172.2647632884086 394.5294785081412L1172.2647632884086 394.5294785081412Q1172.2647632884086 398.8236963437978 1175.7936749751366 398.8236963437978L1175.7936749751366 398.8236963437978Q1177.9195253888279 398.8236963437978 1180.3855118687097 396.8253969549279L1180.3855118687097 396.8253969549279Q1184.8072807291878 393.31774377233717 1188.3361924159153 389.8738661021571Q1191.8651041026433 386.429988431977 1194.6074511363054 383.36876383626145L1194.6074511363054 383.36876383626145Q1197.2222471451455 380.3075392405458 1199.1355125174678 377.84155276066383Q1201.04877788979 375.39682478491875 1202.260512625594 373.7174029581025L1202.260512625594 373.7174029581025Q1204.5564310723807 373.7174029581025 1205.0878936758036 374.4827091070314Q1205.6406147833636 375.24801525596035 1205.6406147833636 376.1621309338476L1205.6406147833636 376.1621309338476Q1205.6406147833636 377.69274323170544 1204.9390841468453 382.1357705963204Q1204.2588120144642 386.5787979609354 1203.025818774523 391.46825391242567Q1201.814084038719 396.3789683680527 1199.9645941788076 399.73781202168516L1199.9645941788076 399.73781202168516Q1204.1100024855054 400.3543086416556 1206.1720773867864 403.03288016290674Q1208.234152288067 405.71145168415796 1208.234152288067 409.2191048667487L1208.234152288067 409.2191048667487Q1208.234152288067 409.83560148671927 1208.234152288067 410.45209810668973Q1208.234152288067 411.0685947266602 1208.0853427591087 411.68509134663077L1208.0853427591087 411.68509134663077Q1207.9365332301504 412.7480165534764 1207.235002593632 412.6629825369288Q1206.554730461251 412.599207024518 1206.7035399902093 411.68509134663077L1206.7035399902093 411.68509134663077Q1207.0011590481258 407.68849256889087 1205.6406147833636 404.71230198972296Q1204.2588120144642 401.73611141055505 1199.1992880298785 401.73611141055505L1199.1992880298785 401.73611141055505Q1196.4569409962169 407.0932544530573 1191.8651041026433 413.81094176032207Q1187.2732672090697 420.54988757172384 1181.533471092103 427.37386739967314Q1175.7936749751366 434.1765887234857 1169.437382238199 439.91638484045245Q1163.0810895012619 445.6561809574191 1156.7247967643248 449.1000586275992Q1150.3685040273872 452.5439362977793 1144.5649323980097 452.5439362977793ZM1142.7154425380982 449.631521231022L1142.7154425380982 449.631521231022Q1146.3931637537844 449.631521231022 1152.664422474174 446.1238680484313L1152.664422474174 446.1238680484313Q1157.1074498387889 443.6578815685492 1162.1669738233745 439.2361127080711Q1167.205239303823 434.79308534345614 1172.179729271861 429.35090828440616Q1177.1542192398988 423.9299897294932 1181.533471092103 418.57284668699083Q1185.8914644401707 413.2157036444885 1188.9526890358861 408.68764226332587Q1192.0139136316016 404.18083938630014 1193.225648367406 401.73611141055505L1193.225648367406 401.73611141055505Q1189.1014985648444 402.6502270884423 1182.979049373413 405.2437645931458Q1176.8566001819822 407.85856060198626 1170.0538788581698 411.8976763879999Q1163.2298990302202 415.95805067815047 1156.8098307808723 421.0175746627359Q1150.3685040273872 426.0558401431846 1145.479048075897 431.7318607477406L1145.479048075897 431.7318607477406Q1142.8855105711937 435.09070440137293 1140.8872111823239 438.91723514601745Q1138.8889117934536 442.74376589066196 1138.8889117934536 445.5073714284607L1138.8889117934536 445.5073714284607Q1138.8889117934536 449.631521231022 1142.7154425380982 449.631521231022ZM1240.2282010141225 360.0907018063407L1240.2282010141225 360.0907018063407Q1237.9322825673357 359.17658612845344 1236.3166362529305 357.1145112271728Q1234.722248442662 355.05243632589213 1235.1686770295369 352.58644984601005L1235.1686770295369 352.58644984601005Q1235.4875545915907 351.2259055812476 1236.0190171950135 350.8432525067832Q1236.5504797984363 350.46059943231865 1239.1440173031401 350.29053139922337L1239.1440173031401 350.29053139922337L1247.2647658834408 348.92998713446093Q1248.6465686523402 348.61110957240714 1248.6465686523402 348.92998713446093L1248.6465686523402 348.92998713446093Q1248.6465686523402 349.5252252502945 1247.5623849413578 349.8441028123482L1247.5623849413578 349.8441028123482Q1245.1176569656127 350.46059943231865 1243.289425609838 351.6723341681228Q1241.4399357499265 352.90532740806384 1240.2282010141225 355.05243632589213L1240.2282010141225 355.05243632589213Q1239.9093234520687 355.4988649127673 1239.9093234520687 356.41298059065457L1239.9093234520687 356.41298059065457Q1239.9093234520687 357.3483547726788 1240.2919765265333 358.17743643401843Q1240.6746296009978 359.02777659949504 1241.14231669201 359.6442732194655L1241.14231669201 359.6442732194655Q1241.610003783022 360.2395113352991 1241.2273507085574 360.2395113352991Q1240.8446976340929 360.2395113352991 1240.2282010141225 360.0907018063407ZM1222.307282026704 406.4767578330868L1222.307282026704 406.4767578330868Q1217.1202070172972 406.4767578330868 1215.0368736118794 403.18168969186513Q1212.9747987105989 399.88662155064355 1212.9747987105989 395.29478465707007L1212.9747987105989 395.29478465707007Q1212.9747987105989 391.78713147447934 1213.9739484050338 388.1094102587932Q1214.9730980994686 384.4316890431071 1216.5037103973264 381.51927397634984L1216.5037103973264 381.51927397634984Q1215.1219076284274 380.9027773563794 1215.5895947194394 380.4563487695042L1215.5895947194394 380.4563487695042Q1216.652519926285 378.92573647164636 1218.2681662406903 376.6298180248597Q1219.8625540509588 374.333899578073 1221.5419758777753 372.0379811312863L1221.5419758777753 372.0379811312863Q1223.540275266645 369.42318512244594 1225.1559215810507 367.7437632956297Q1226.7503093913192 366.0643414688135 1228.5997992512307 366.0643414688135L1228.5997992512307 366.0643414688135Q1229.8115339870346 366.0643414688135 1230.8106836814695 366.82964761774235Q1231.8098333759049 367.5949537666713 1232.8727585827505 368.3602599156002L1232.8727585827505 368.3602599156002Q1229.3651054001593 372.0379811312863 1225.8361937134318 377.39512417378864Q1222.307282026704 382.7522672162909 1220.096397596465 388.64087286221604Q1217.8855131662262 394.5294785081412 1217.8855131662262 400.2054991126972L1217.8855131662262 400.2054991126972Q1217.8855131662262 402.6502270884423 1219.0334723896194 403.6493767828773Q1220.1814316130126 404.6272679731753 1221.860853439829 404.6272679731753L1221.860853439829 404.6272679731753Q1225.3685066224198 404.6272679731753 1228.1321121602186 402.18253999743024L1228.1321121602186 402.18253999743024Q1231.0445272269758 399.58900249272676 1234.934833484031 394.61451252468885Q1238.846398245223 389.64002255665105 1242.3753099319506 384.1340699851903L1242.3753099319506 384.1340699851903Q1243.289425609838 382.90107674524927 1243.8208882132608 382.7522672162909Q1244.3523508166836 382.6034576873325 1243.9059222298088 383.36876383626145L1243.9059222298088 383.36876383626145Q1242.6729289898676 385.81349181200653 1240.143166997575 389.5549885401034Q1237.613405005282 393.31774377233717 1234.8710579716203 396.9742064838863Q1232.1074524338214 400.6519276995724 1230.1304115490884 402.6502270884423L1230.1304115490884 402.6502270884423Q1228.1321121602186 404.6272679731753 1226.0700372589376 405.56264215519957Q1224.007962357657 406.4767578330868 1222.307282026704 406.4767578330868ZM1263.1873854819896 406.3279483041284L1263.1873854819896 406.3279483041284Q1259.2120452083868 406.3279483041284 1257.5963988939811 403.9469958407941Q1255.980752579576 401.56604337745966 1255.980752579576 398.3560092527857L1255.980752579576 398.3560092527857Q1255.980752579576 394.6782880370996 1257.128711802969 390.93679130900273Q1258.2766710263622 387.19529458090597 1259.7435078118096 384.04903596864267Q1261.1890860931194 380.9027773563794 1262.1032017710068 379.22335552956315L1262.1032017710068 379.22335552956315Q1264.7179977798473 374.333899578073 1264.7179977798473 372.80328728021516L1264.7179977798473 372.80328728021516Q1264.7179977798473 371.12386545339905 1263.1873854819896 371.71910356923263L1263.1873854819896 371.71910356923263Q1261.9543922420485 372.1867906602447 1259.8072833242204 374.333899578073Q1257.6814329105287 376.4810084959013 1255.3855144637419 379.22335552956315Q1253.0895960169555 381.986961067362 1251.3251401735915 384.2828795141487Q1249.5606843302276 386.5787979609354 1249.0929972392155 387.34410410986436L1249.0929972392155 387.34410410986436Q1244.8200379076961 393.46655330129556 1243.1406160808797 397.4418935748985Q1241.4399357499265 401.41723384850127 1240.6746296009978 403.2667237084129L1240.6746296009978 403.2667237084129Q1240.3770105430808 404.03202985734174 1238.9952077741814 404.03202985734174L1238.9952077741814 404.03202985734174Q1237.613405005282 404.03202985734174 1236.2528607405197 402.88407063394834Q1234.8710579716203 401.73611141055505 1234.8710579716203 399.44019296376837L1234.8710579716203 399.44019296376837Q1234.8710579716203 398.20719972382733 1236.2528607405197 395.06094111156403Q1237.613405005282 391.93594100343773 1239.6117043941517 387.64172316778115L1239.6117043941517 387.64172316778115Q1241.4399357499265 383.51757336521985 1243.289425609838 379.3083895461109Q1245.1176569656127 375.09920572700196 1246.201840676595 372.65447775125676L1246.201840676595 372.65447775125676Q1245.1176569656127 371.71910356923263 1245.1176569656127 371.27267498235744Q1245.1176569656127 370.80498789134526 1245.266466494571 370.5073688334285L1245.266466494571 370.5073688334285Q1245.5853440566248 369.7420626844996 1246.4994597345121 367.97760684113575Q1247.4135754123995 366.2131509977719 1248.3276910902869 364.44869515440803Q1249.263065272311 362.70549781518105 1249.5606843302276 362.237810724169L1249.5606843302276 362.237810724169Q1250.0283714212396 361.9401916662522 1251.9416367935619 361.17488551732333Q1253.8549021658841 360.40957936839436 1255.6831335216589 360.40957936839436L1255.6831335216589 360.40957936839436L1256.2996301416292 360.40957936839436Q1258.127861497404 360.40957936839436 1258.127861497404 361.4725045752401L1258.127861497404 361.4725045752401Q1258.127861497404 362.53542978208577 1257.0649362905583 364.2361101130389L1257.0649362905583 364.2361101130389Q1256.5972491995462 365.00141626196785 1254.9178273727302 368.12641637009415Q1253.2384055459138 371.27267498235744 1251.0912966280857 375.24801525596035Q1248.9441877102572 379.22335552956315 1247.1797318668932 382.81604272870163Q1245.4365345276665 386.429988431977 1244.6712283787374 388.2582197877516L1244.6712283787374 388.2582197877516Q1244.2035412877253 389.64002255665105 1244.2885753042733 390.93679130900273Q1244.3523508166836 392.2335600613545 1244.9688474366544 391.31944438346716L1244.9688474366544 391.31944438346716Q1249.263065272311 384.89937613411917 1252.91952798386 380.3075392405458Q1256.5972491995462 375.7157023469724 1260.2749704152325 371.71910356923263Q1263.9526916309183 367.7437632956297 1268.3957189955336 363.47080396411L1268.3957189955336 363.47080396411Q1269.9263312933913 364.0660420799436 1271.6057531202073 364.0660420799436Q1273.2851749470237 364.0660420799436 1274.5181681869644 365.00141626196785L1274.5181681869644 365.00141626196785Q1275.1134063027985 365.44784484884303 1275.1134063027985 366.53202855982556L1275.1134063027985 366.53202855982556Q1275.1134063027985 368.657878973517 1272.6049028146426 372.8670627926259Q1270.0751408223496 377.07624661173486 1267.0139162266341 382.2845801252788L1267.0139162266341 382.2845801252788Q1264.7179977798473 386.2599203988817 1262.4220793330605 391.46825391242567Q1260.1261608862737 396.6765874259695 1260.1261608862737 400.503118170614L1260.1261608862737 400.503118170614Q1260.1261608862737 402.5014175594839 1260.8064330186553 403.7981863118357Q1261.5079636551732 405.0949550641874 1263.0385759530313 405.0949550641874L1263.0385759530313 405.0949550641874Q1264.3991202177936 405.0949550641874 1266.0998005487468 404.03202985734174L1266.0998005487468 404.03202985734174Q1267.3115352845507 403.2667237084129 1271.456943591249 398.88747185620855Q1275.5810933938105 394.5294785081412 1280.4705493453007 387.0252265478106L1280.4705493453007 387.0252265478106Q1280.9382364363128 386.5787979609354 1281.087045965271 386.5787979609354L1281.087045965271 386.5787979609354Q1281.4059235273248 386.5787979609354 1281.4059235273248 386.8764170188522L1281.4059235273248 386.8764170188522Q1281.4059235273248 387.19529458090597 1280.9382364363128 388.1094102587932L1280.9382364363128 388.1094102587932Q1275.878712451727 396.6765874259695 1270.9042224836894 401.502267865049Q1265.9297325156513 406.3279483041284 1263.1873854819896 406.3279483041284ZM1256.9161267616 452.5439362977793L1256.9161267616 452.5439362977793Q1254.7690178437715 452.5439362977793 1252.1542218349314 451.01332399992145Q1249.5606843302276 449.4827117020636 1247.796228486864 447.2718272718246Q1246.0317726435 445.03968433744865 1246.0317726435 442.74376589066196L1246.0317726435 442.74376589066196Q1246.0317726435 440.2990379149169 1248.795378181299 436.62131669923076Q1251.5589837190973 432.94359548354464 1255.5343239927006 429.1170647389001Q1259.5096642663034 425.2905339942556 1263.4212290274959 422.0804998695817Q1267.3115352845507 418.8704657449076 1269.6074537313375 417.1910439180914L1269.6074537313375 417.1910439180914Q1278.344698931609 411.2174042556186 1287.974801305631 406.71060137859286Q1297.6261621837903 402.18253999743024 1306.809835970937 399.270124930673L1306.809835970937 399.270124930673Q1308.021570706741 397.14427451698157 1309.254563946682 393.1476757392418Q1310.4875571866228 389.17233546563887 1311.4016728645101 385.04818566307756Q1312.3157885423975 380.9027773563794 1312.3157885423975 378.4580493806343L1312.3157885423975 378.4580493806343Q1310.0198700956107 381.51927397634984 1306.724801954389 385.2820292085837Q1303.4297338131678 389.02352593668047 1299.9220806305766 392.5524376234082Q1296.393168943849 396.06009080599904 1292.9492912736691 398.3560092527857Q1289.5054136034892 400.6519276995724 1286.9118760987853 400.6519276995724L1286.9118760987853 400.6519276995724Q1283.7018419741116 400.6519276995724 1281.2358554942293 398.9725058727562Q1278.7911275184842 397.2930840459401 1278.7911275184842 393.61536283025396L1278.7911275184842 393.61536283025396Q1278.7911275184842 391.78713147447934 1279.5564336674133 389.49121302769265Q1280.321739816342 387.19529458090597 1282.0011616431584 384.2828795141487L1282.0011616431584 384.2828795141487Q1283.85065150307 381.22165491843316 1287.2945291732499 377.24631464483025Q1290.7384068434299 373.24971586709034 1294.947590662539 369.5082191389936Q1299.156774481648 365.7667224108967 1303.4297338131678 363.236960418604Q1307.7239516488244 360.70719842631115 1311.0827953024564 360.70719842631115L1311.0827953024564 360.70719842631115Q1313.0810946913266 360.70719842631115 1315.2919791215654 362.3228447407166Q1317.5241220559415 363.9172325509852 1318.1406186759118 365.9155319398551L1318.1406186759118 365.9155319398551Q1318.7358567917454 367.44614423771293 1318.6720812793346 368.12641637009415Q1318.587047262787 368.82794700661236 1318.4382377338288 369.12556606452915L1318.4382377338288 369.12556606452915Q1318.1406186759118 369.42318512244594 1317.5241220559415 368.657878973517L1317.5241220559415 368.657878973517Q1317.0564349649294 367.8925728245881 1315.2919791215654 367.44614423771293Q1313.5487817823387 366.97845714670075 1311.6992919224272 366.97845714670075L1311.6992919224272 366.97845714670075Q1310.933985773498 366.97845714670075 1310.168679624569 367.12726667565914Q1309.4033734756404 367.29733470875453 1308.6380673267113 367.5949537666713L1308.6380673267113 367.5949537666713Q1305.4280332020376 369.12556606452915 1301.601502457393 371.95294711473866Q1297.7749717127485 374.7803281649482 1294.246060026021 378.3092398516759L1294.246060026021 378.3092398516759Q1289.0589850166139 383.51757336521985 1286.8268420822378 387.7267571843288Q1284.6159576519985 391.93594100343773 1284.6159576519985 394.5294785081412L1284.6159576519985 394.5294785081412Q1284.6159576519985 398.8236963437978 1288.1236108345893 398.8236963437978L1288.1236108345893 398.8236963437978Q1290.2707197524178 398.8236963437978 1292.7154477281629 396.8253969549279L1292.7154477281629 396.8253969549279Q1297.1584750927777 393.31774377233717 1300.6873867795057 389.8738661021571Q1304.1950399620964 386.429988431977 1306.9586454998953 383.36876383626145L1306.9586454998953 383.36876383626145Q1309.5521830045986 380.3075392405458 1311.465448376921 377.84155276066383Q1313.3787137492432 375.39682478491875 1314.6117069891843 373.7174029581025L1314.6117069891843 373.7174029581025Q1316.907625435971 373.7174029581025 1317.439088039394 374.4827091070314Q1317.9705506428168 375.24801525596035 1317.9705506428168 376.1621309338476L1317.9705506428168 376.1621309338476Q1317.9705506428168 377.69274323170544 1317.2902785104352 382.1357705963204Q1316.610006378054 386.5787979609354 1315.3770131381134 391.46825391242567Q1314.1440198981722 396.3789683680527 1312.3157885423975 399.73781202168516L1312.3157885423975 399.73781202168516Q1316.439938344959 400.3543086416556 1318.5232717503764 403.03288016290674Q1320.585346651657 405.71145168415796 1320.585346651657 409.2191048667487L1320.585346651657 409.2191048667487Q1320.585346651657 409.83560148671927 1320.585346651657 410.45209810668973Q1320.585346651657 411.0685947266602 1320.4365371226986 411.68509134663077L1320.4365371226986 411.68509134663077Q1320.266469089603 412.7480165534764 1319.586196957222 412.6629825369288Q1318.905924824841 412.599207024518 1319.0547343537992 411.68509134663077L1319.0547343537992 411.68509134663077Q1319.3523534117162 407.68849256889087 1317.9705506428168 404.71230198972296Q1316.610006378054 401.73611141055505 1311.5504823934689 401.73611141055505L1311.5504823934689 401.73611141055505Q1308.78687685567 407.0932544530573 1304.1950399620964 413.81094176032207Q1299.6032030685233 420.54988757172384 1293.8634069515565 427.37386739967314Q1288.1236108345893 434.1765887234857 1281.7885766017894 439.91638484045245Q1275.4322838648518 445.6561809574191 1269.0759911279147 449.1000586275992Q1262.7196983909776 452.5439362977793 1256.9161267616 452.5439362977793ZM1255.0666369016885 449.631521231022L1255.0666369016885 449.631521231022Q1258.7443581173743 449.631521231022 1265.0156168377644 446.1238680484313L1265.0156168377644 446.1238680484313Q1269.4586442023792 443.6578815685492 1274.5181681869644 439.2361127080711Q1279.5564336674133 434.79308534345614 1284.530923635451 429.35090828440616Q1289.5054136034892 423.9299897294932 1293.8634069515565 418.57284668699083Q1298.2426588037606 413.2157036444885 1301.303883399476 408.68764226332587Q1304.365107995192 404.18083938630014 1305.5768427309958 401.73611141055505L1305.5768427309958 401.73611141055505Q1301.4526929284348 402.6502270884423 1295.3302437370035 405.2437645931458Q1289.2077945455721 407.85856060198626 1282.3838147176225 411.8976763879999Q1275.5810933938105 415.95805067815047 1269.1610251444622 421.0175746627359Q1262.7196983909776 426.0558401431846 1257.830242439487 431.7318607477406L1257.830242439487 431.7318607477406Q1255.2154464306468 435.09070440137293 1253.2384055459138 438.91723514601745Q1251.240106157044 442.74376589066196 1251.240106157044 445.5073714284607L1251.240106157044 445.5073714284607Q1251.240106157044 449.631521231022 1255.0666369016885 449.631521231022Z " fill="#3c153b" transform="matrix(0.6625849678407958,0,0,0.6625849678407959,0,49.84506247896475)"/></g></svg>